<?xml version="1.0" encoding="utf-8"?>
<!-- Generator: Adobe Illustrator 18.1.1, SVG Export Plug-In . SVG Version: 6.00 Build 0)  -->
<svg version="1.1" id="Слой_1" xmlns="http://www.w3.org/2000/svg" xmlns:xlink="http://www.w3.org/1999/xlink" x="0px" y="0px"
	 viewBox="0 0 32 21.37" enable-background="new 0 0 32 21.37" xml:space="preserve">
<g>
	<path fill-rule="evenodd" clip-rule="evenodd" fill="#262626" d="M0.21,10.55l9.33-1.44l0.63,0.17V9.4
		c0.16-0.09,0.25-0.12,0.36-0.14l1.2-0.16c0.32-0.05,0.6-0.05,0.85,0.02l1.56,0.49l4.63,9.02l-4.63-1.51L0.22,12.26L0.21,10.55z"/>
	<polygon fill-rule="evenodd" clip-rule="evenodd" fill="#515151" points="13.94,14.18 2.91,10.59 8.54,9.69 13.92,11.39 	"/>
	<polygon fill-rule="evenodd" clip-rule="evenodd" fill="#262626" points="0.06,13.48 0.05,13.12 2.27,12.69 2.26,13.28 0.35,13.57 
			"/>
	<polygon fill-rule="evenodd" clip-rule="evenodd" fill="#AAAAAA" points="0,10.26 10.02,8.71 10.16,8.75 0.29,10.35 	"/>
	<path fill-rule="evenodd" clip-rule="evenodd" fill="#262626" d="M4.03,11.01C4.03,11.01,4.02,11.01,4.03,11.01l-0.15,0.03L2,11.39
		l0.58,4.22l2.13-0.4l0,0c0.03-0.01,0.05-0.01,0.07-0.02c0.6-0.16,0.92-1.22,0.72-2.38C5.28,11.65,4.63,10.85,4.03,11.01L4.03,11.01
		z"/>
	<path fill-rule="evenodd" clip-rule="evenodd" fill="#262626" d="M7.37,16.16c0.01,0,0.03-0.01,0.04-0.01
		c0.64-0.16,0.99-1.25,0.77-2.44c-0.22-1.15-0.88-1.96-1.51-1.86l0,0H6.66c-0.01,0-0.02,0.01-0.03,0.01l-1.98,0.38l0.59,4.33
		L7.37,16.16L7.37,16.16z"/>
	<path fill-rule="evenodd" clip-rule="evenodd" fill="#515151" d="M1.86,11.26l0.15,2.53l-1.66-0.52l-0.05-2.42L1.86,11.26z
		 M8.13,15.26c0.13-0.44,0.15-0.98,0.05-1.56c-0.02-0.12-0.05-0.24-0.08-0.35l9.06,2.92l-0.54,0.91c-0.01,0.03-0.01,0.04-0.01,0.07
		l-0.11,1.04l0.03,0.12l-0.03,0.23l-3.4-1.14l-0.01-0.39L8.13,15.26L8.13,15.26z"/>
	<polygon fill-rule="evenodd" clip-rule="evenodd" fill="#262626" points="1.25,12.62 1.75,11.6 2.01,11.51 2,11.39 2.73,11.25 
		2.73,11.25 2.53,11.17 1.94,11.08 1.56,11.25 1.49,11.27 1.06,11.94 0.89,12.98 0.88,13.43 0.88,13.67 1.05,13.74 1.26,13.7 	"/>
	<path fill-rule="evenodd" clip-rule="evenodd" fill="#3F3F3F" d="M4.53,12.24c-0.64,0.16-0.99,1.26-0.77,2.45
		c0.22,1.18,0.93,2.02,1.57,1.85c0.65-0.16,0.99-1.26,0.77-2.45C5.88,12.91,5.17,12.08,4.53,12.24L4.53,12.24z"/>
	<path fill-rule="evenodd" clip-rule="evenodd" fill="#CCCCCC" d="M4.68,12.97c0.02-0.01,0.04-0.01,0.05-0.01
		c0.18,0,0.35,0.17,0.45,0.31c0.21,0.26,0.33,0.62,0.39,0.94c0.07,0.36,0.07,0.78-0.04,1.13c-0.05,0.17-0.17,0.43-0.36,0.47
		c-0.02,0.01-0.04,0.01-0.06,0.01c-0.17,0-0.35-0.17-0.45-0.31c-0.2-0.26-0.33-0.62-0.38-0.94c-0.07-0.36-0.07-0.77,0.04-1.13
		C4.37,13.28,4.5,13.02,4.68,12.97L4.68,12.97z"/>
	<path fill-rule="evenodd" clip-rule="evenodd" fill="#3F3F3F" d="M1.92,11.4c-0.6,0.16-0.92,1.23-0.72,2.38
		c0.21,1.15,0.86,1.96,1.46,1.81c0.6-0.16,0.92-1.23,0.71-2.38C3.17,12.05,2.52,11.24,1.92,11.4L1.92,11.4z"/>
	<path fill-rule="evenodd" clip-rule="evenodd" fill="#CCCCCC" d="M2.07,12.16c0.02-0.01,0.03-0.01,0.05-0.01
		c0.15-0.01,0.3,0.17,0.38,0.27c0.18,0.25,0.29,0.58,0.35,0.89c0.06,0.34,0.06,0.74-0.04,1.07c-0.04,0.14-0.15,0.39-0.31,0.44
		c-0.02,0.01-0.03,0.01-0.05,0.01c-0.15,0.01-0.31-0.17-0.38-0.27c-0.18-0.25-0.29-0.59-0.35-0.89c-0.06-0.34-0.06-0.74,0.04-1.07
		C1.81,12.46,1.91,12.21,2.07,12.16L2.07,12.16z"/>
	<polygon fill-rule="evenodd" clip-rule="evenodd" fill="#515151" points="0,10.26 0.06,13.48 0.35,13.57 0.34,13.26 0.29,10.35 
		10.16,8.75 10.16,9.28 0.31,10.84 0.29,10.35 	"/>
	<path fill-rule="evenodd" clip-rule="evenodd" fill="#B61C17" d="M10.32,9.28c0.16-0.09,0.25-0.12,0.36-0.14l1.2-0.16
		C12.2,8.94,12.48,8.93,12.74,9l1.56,0.49v0.55l-0.37,0.24l-2.68-0.8c-0.55-0.15-0.92-0.05-1.27,0.37L9.78,9.78
		C9.9,9.62,10.09,9.45,10.32,9.28L10.32,9.28z"/>
	<path fill-rule="evenodd" clip-rule="evenodd" fill="#262626" d="M19.73,16c-0.02,0.01-0.03,0.01-0.05,0.02l-1.71,0.38l1.06,4.93
		l1.76-0.38l0,0c0.01,0,0.01-0.01,0.01-0.01c0.86-0.18,1.33-1.44,1.03-2.81c-0.29-1.34-1.21-2.29-2.06-2.14l0,0l0,0
		C19.76,15.99,19.75,16,19.73,16L19.73,16z"/>
	<path fill-rule="evenodd" clip-rule="evenodd" fill="#262626" d="M16.46,19.01l0.21,0.07l0.95-0.22l0.11-0.25
		c0.01-0.02,0.01-0.03,0.01-0.04l0.48-0.39c0.02-0.03,0.03-0.03,0.04-0.06l1.21-1.77l-0.48-0.32L18.95,16l-0.92-0.09l-0.82,0.33
		l-0.03,0.01l-0.55,0.93c-0.01,0.03-0.01,0.04-0.01,0.07l-0.11,1.04l0.03,0.12L16.46,19.01z"/>
	<path fill-rule="evenodd" clip-rule="evenodd" fill="#3F3F3F" d="M17.88,16.41c-0.87,0.19-1.33,1.45-1.03,2.81
		c0.29,1.36,1.24,2.32,2.1,2.13c0.87-0.19,1.33-1.45,1.03-2.81C19.68,17.18,18.74,16.22,17.88,16.41L17.88,16.41z"/>
	<path fill-rule="evenodd" clip-rule="evenodd" fill="#CCCCCC" d="M18.06,17.25c0.03-0.01,0.07-0.01,0.1-0.01
		c0.26-0.01,0.51,0.18,0.68,0.37c0.26,0.29,0.43,0.69,0.52,1.07c0.08,0.38,0.09,0.81-0.03,1.19c-0.07,0.24-0.22,0.51-0.46,0.62
		c-0.03,0.01-0.06,0.02-0.09,0.03c-0.04,0.01-0.07,0.01-0.11,0.01c-0.26,0.01-0.51-0.18-0.67-0.37c-0.26-0.29-0.43-0.69-0.52-1.07
		s-0.09-0.81,0.03-1.19c0.07-0.24,0.22-0.51,0.46-0.62C17.99,17.26,18.02,17.26,18.06,17.25L18.06,17.25z"/>
	<path fill-rule="evenodd" clip-rule="evenodd" fill="#F24534" d="M17.1,16.25c0.23-0.22,0.48-0.36,0.76-0.41l0,0l0.83-0.19l0,0
		c0.34-0.09,0.72-0.04,1.09,0.19c0.46,0.29,0.86,0.78,1.17,1.47l0.54,0.17l10.48-2.26l0.02-1.3L32,10.01l-0.58-5.57l-0.09-0.26
		l-5.98-1.32l-11.6,1.4l-0.01,10.91L17.1,16.25z"/>
	<path fill-rule="evenodd" clip-rule="evenodd" fill="#B61C17" d="M21.49,17.49l0.03-5.55l-0.74-5.86l-0.12-0.32l-6.92-1.5
		l-0.01,10.91l3.36,1.08c-0.06,0.07-0.13,0.14-0.19,0.22c-0.45,0.61-0.51,1.43-0.47,2.17c0.01,0.12,0.02,0.24,0.03,0.37l0.21,0.07
		c-0.02-0.17-0.04-0.35-0.04-0.51c-0.03-0.65,0.02-1.38,0.42-1.92c0.43-0.57,1.07-0.75,1.7-0.36c1.11,0.69,1.68,2.61,1.39,3.89v0.01
		l1.31,0.4L21.49,17.49L21.49,17.49z"/>
	<polygon fill-rule="evenodd" clip-rule="evenodd" fill="#515151" points="21.26,6.37 31.02,4.88 31.53,9.72 21.9,11.49 	"/>
	<path fill-rule="evenodd" clip-rule="evenodd" fill="#858184" d="M21.47,6.53l0.57,4.54l2.84-0.53c1.22-1.35,1.96-3.04,2.3-4.89
		L21.47,6.53z"/>
	<polygon fill-rule="evenodd" clip-rule="evenodd" fill="#474747" points="20.34,6.49 17.61,5.89 17.59,10.74 20.88,11.61 	"/>
	<polygon fill-rule="evenodd" clip-rule="evenodd" fill="#D1302D" points="20.81,15.53 17.59,14.5 17.59,10.74 20.88,11.61 	"/>
	<polygon fill-rule="evenodd" clip-rule="evenodd" fill="#A3A1A1" points="22.32,13.33 22.29,15.53 31.55,13.64 31.56,11.51 	"/>
	<path fill-rule="evenodd" clip-rule="evenodd" fill="#3F3F3F" d="M31.56,11.51c0,0.11,0,0.22-0.01,0.33
		c-1.54,0.31-3.08,0.61-4.62,0.92c-1.54,0.31-3.08,0.61-4.62,0.92c0-0.11,0.01-0.23,0.01-0.34c1.54-0.31,3.08-0.61,4.62-0.91
		C28.48,12.12,30.03,11.81,31.56,11.51L31.56,11.51z M31.55,13.32c0,0.11,0,0.22-0.01,0.33c-1.54,0.32-3.08,0.63-4.63,0.94
		c-1.54,0.32-3.08,0.63-4.63,0.95c0-0.11,0-0.23,0.01-0.34c1.54-0.32,3.08-0.63,4.63-0.94C28.47,13.94,30.01,13.63,31.55,13.32
		L31.55,13.32z M31.56,12.71c-0.01,0.11-0.01,0.22-0.01,0.33c-1.54,0.31-3.08,0.62-4.62,0.93c-1.54,0.32-3.08,0.63-4.63,0.94
		c0-0.11,0-0.23,0-0.34c1.54-0.31,3.08-0.62,4.63-0.93C28.47,13.33,30.02,13.02,31.56,12.71L31.56,12.71z M31.56,12.11
		c0,0.11,0,0.22,0,0.33c-1.54,0.31-3.08,0.62-4.62,0.93c-1.54,0.31-3.08,0.62-4.63,0.93c0-0.11,0.01-0.23,0.01-0.34
		c1.54-0.31,3.08-0.62,4.62-0.92C28.48,12.73,30.02,12.42,31.56,12.11L31.56,12.11z"/>
	<path fill-rule="evenodd" clip-rule="evenodd" fill="#CCCCCC" d="M27.32,0.05C27.23,0.01,27.16-0.01,27.11,0l0,0L16.43,1.26
		l4.23,4.49l10.66-1.57C30.57,2.16,29.12,0.83,27.32,0.05L27.32,0.05z"/>
	<polygon fill-rule="evenodd" clip-rule="evenodd" fill="#B61C17" points="21.49,16.19 21.45,20.59 31.91,18.2 31.98,13.93 	"/>
	<polygon fill-rule="evenodd" clip-rule="evenodd" fill="#F0EDED" points="22.27,18.79 22.28,16.83 23.21,16.62 23.2,18.59 	"/>
	<polygon fill-rule="evenodd" clip-rule="evenodd" fill="#F0EDED" points="30.53,17.01 30.54,15.09 31.49,14.88 31.48,16.8 	"/>
	<polygon fill-rule="evenodd" clip-rule="evenodd" fill="#3F3F3F" points="23.8,19.19 23.81,18.1 29.92,16.71 29.88,17.76 	"/>
	<polygon fill-rule="evenodd" clip-rule="evenodd" fill="#3F3F3F" points="23.8,17.53 23.81,16.43 29.96,15.09 29.93,16.15 	"/>
	<path fill-rule="evenodd" clip-rule="evenodd" fill="#999999" d="M16.62,1.31c-0.22-0.1-0.34-0.05-0.34,0.19l-0.06,3.07l0.05,0.23
		l4.39,0.95C19.87,3.63,18.52,2.14,16.62,1.31L16.62,1.31z"/>
	<polygon fill-rule="evenodd" clip-rule="evenodd" fill="#A3A1A1" points="20.95,9.64 20.97,9.83 20.12,9.76 20.07,9.57 	"/>
	<polygon fill-rule="evenodd" clip-rule="evenodd" fill="#A3A1A1" points="21.01,10.25 21.04,10.45 20.19,10.39 20.13,10.19 	"/>
	<polygon fill-rule="evenodd" clip-rule="evenodd" fill="#A3A1A1" points="20.26,8.3 20.47,10.89 19.23,10.83 19.06,8.22 	"/>
	<path fill-rule="evenodd" clip-rule="evenodd" fill="#515151" d="M13.37,14.63c-0.59,0-1.07,0.67-1.07,1.37s0.34,1.18,0.81,1.34
		v-0.02V17.1l-0.02-2.14l0.66,0.21v-0.01h-0.01v-0.45C13.62,14.66,13.5,14.63,13.37,14.63L13.37,14.63z"/>
	<path fill-rule="evenodd" clip-rule="evenodd" fill="#D1302D" d="M14.11,5.15c0-0.03,0.02-0.05,0.04-0.07
		c0.02-0.02,0.05-0.03,0.07-0.02L16.1,5.5c0.07,0.02,0.12,0.08,0.12,0.15v1.02c0,0.05-0.02,0.09-0.06,0.12
		c-0.04,0.03-0.08,0.04-0.13,0.03L14.19,6.4c-0.04-0.01-0.07-0.04-0.07-0.08V5.15L14.11,5.15z M14.11,6.76
		c0-0.03,0.02-0.05,0.04-0.07c0.02-0.02,0.05-0.02,0.07-0.02L16.1,7.1c0.07,0.02,0.12,0.08,0.12,0.15v1.02
		c0,0.05-0.02,0.09-0.06,0.13c-0.04,0.03-0.08,0.04-0.13,0.03l-1.84-0.42C14.14,8,14.11,7.96,14.11,7.92V6.76L14.11,6.76z
		 M14.11,8.37c0-0.03,0.02-0.05,0.04-0.07c0.02-0.02,0.05-0.02,0.07-0.02l1.87,0.43c0.07,0.02,0.12,0.08,0.12,0.15v1.02
		c0,0.05-0.02,0.09-0.06,0.13c-0.04,0.03-0.08,0.04-0.13,0.03l-1.84-0.43c-0.04-0.01-0.07-0.04-0.07-0.08V8.37L14.11,8.37z"/>
	<polygon fill-rule="evenodd" clip-rule="evenodd" fill="#F0EDED" points="20.96,16.62 20.96,17.16 20.03,16.87 20.03,16.33 	"/>
	<path fill-rule="evenodd" clip-rule="evenodd" fill="#B61C17" d="M7.15,11.52l-2.6-0.85c-0.24-0.08-0.45-0.09-0.65-0.06l-1.95,0.35
		v0.01c-0.24,0.02-0.46,0.13-0.66,0.34c-0.52,0.54-0.53,1.64-0.44,2.35l0.17,0.07c-0.05-0.39-0.09-0.87-0.02-1.34
		c0.08-0.45,0.24-0.77,0.43-0.97c0.25-0.26,0.57-0.33,0.89-0.22l2.64,0.85c0.58,0.2,0.99,0.8,1.27,2.19l2.04-0.34l0.09-0.09
		l0.09-0.08C8.17,12.35,7.73,11.72,7.15,11.52z"/>
	<path fill-rule="evenodd" clip-rule="evenodd" fill="#515151" d="M13.5,14.64l-4.78-1.37c-0.89,0.13-1.52,1.87-0.39,2.36l4.79,1.71
		l-0.01-0.24l-0.02-2.14L13.5,14.64z"/>
	<path fill-rule="evenodd" clip-rule="evenodd" fill="#6E6E6E" d="M8.14,13.61c-0.19,0.21-0.33,0.48-0.38,0.76l4.6,1.58
		c0.02-0.34,0.13-0.67,0.34-0.92L8.14,13.61z"/>
</g>
<g>
</g>
<g>
</g>
<g>
</g>
<g>
</g>
<g>
</g>
<g>
</g>
<g>
</g>
<g>
</g>
<g>
</g>
<g>
</g>
<g>
</g>
<g>
</g>
<g>
</g>
<g>
</g>
<g>
</g>
</svg>
