<?xml version="1.0" encoding="utf-8"?>
<!-- Generator: Adobe Illustrator 18.1.1, SVG Export Plug-In . SVG Version: 6.00 Build 0)  -->
<svg version="1.1" id="Слой_1" xmlns="http://www.w3.org/2000/svg" xmlns:xlink="http://www.w3.org/1999/xlink" x="0px" y="0px"
	 viewBox="0 0 32 20.87" enable-background="new 0 0 32 20.87" xml:space="preserve">
<g>
	<path fill-rule="evenodd" clip-rule="evenodd" fill="#7A130F" d="M19.58,11.27c4.13,0.33,7.98,0.8,12.03,1.48
		c0.59,0.13,0.41,1.11,0.14,1.29c-0.64,0.38-1.42,0.77-2.33,1.16c-5.31-0.16-10.14-0.34-14.5-0.54c-0.54-0.27-0.71-1.25,0-1.79
		C16.3,12.41,17.85,11.87,19.58,11.27L19.58,11.27z"/>
	<polygon fill-rule="evenodd" clip-rule="evenodd" fill="#7A130F" points="11.51,3.86 8.86,4.67 8.34,3.14 10.11,3.11 11.39,3.44 	
		"/>
	<path fill-rule="evenodd" clip-rule="evenodd" fill="#E0E0E0" d="M5.07,7.68c-0.13,1.29,0.33,2.38,0.77,3.44
		c0.54,1.36,1.32,2.58,2.78,3.69c1.36,1.03,2.65,1.95,4.38,2.63c2.33,0.95,4.3,1.69,5.91,2.26c0.54,0.19,1.04,0.36,1.5,0.51
		c0.21,0.06,0.43,0.13,0.65,0.19c2.12,0.56,4.58,0.65,6.49,0.09c1.72-0.51,2.83-1.41,3.22-2.53c0.07-0.22,0.13-0.46,0.14-0.69
		c-0.02-0.94-0.27-1.85-0.79-2.68v-0.01c-0.52-0.83-1.31-1.56-2.43-2.14c-0.55-0.94-1.3-1.84-2.28-2.35
		c-0.83-0.43-1.73-0.56-2.78-0.84c-3.85-1.01-7.95-1.98-12.31-2.89C8.54,5.97,8.15,5.84,6.95,5.88c-0.42,0-1.16-0.29-1.32,0.01
		C5.57,6.01,5.52,6.12,5.47,6.22C5.24,6.74,5.11,7.23,5.07,7.68z"/>
	<path fill-rule="evenodd" clip-rule="evenodd" fill="#8A8A8A" d="M5.47,6.22C5.71,6.26,6,6.33,6.19,6.33
		c1.2-0.04,1.6,0.09,3.38,0.47c4.36,0.91,8.46,1.86,12.31,2.89c1.05,0.28,1.95,0.42,2.78,0.84c0.98,0.5,1.73,1.42,2.28,2.35
		c2.24,1.16,3.18,2.96,3.22,4.83c-0.01,0.12-0.07,0.86,0.04,0.9c0.11,0.04,0.38-0.61,0.58-0.64c0.07-0.22,0.13-0.46,0.14-0.69
		c-0.04-1.88-0.98-3.68-3.22-4.84c-0.55-0.94-1.3-1.84-2.28-2.35c-0.83-0.43-1.73-0.56-2.78-0.84c-3.85-1.01-7.95-1.98-12.31-2.89
		C8.54,5.97,8.15,5.84,6.95,5.88c-0.42,0-1.16-0.29-1.32,0.01C5.57,6.01,5.52,6.12,5.47,6.22z"/>
	<path fill-rule="evenodd" clip-rule="evenodd" fill="#9E1814" d="M20.42,20.22c-0.67-0.22-1.44-0.48-2.29-0.79
		c0.01-0.35,0.07-0.7,0.19-1.04c0.57,0.2,1.1,0.38,1.59,0.54c2.52,0.81,5.62,1.01,7.98,0.31c1.35-0.4,2.37-1.02,3-1.78
		c-0.18,1.36-1.36,2.45-3.34,3.04C25.45,21.12,22.68,20.94,20.42,20.22L20.42,20.22z"/>
	<path fill-rule="evenodd" clip-rule="evenodd" fill="#ABABAB" d="M5.05,8.12c0,1.1,0.4,2.07,0.79,3c0.54,1.36,1.32,2.58,2.78,3.69
		c1.36,1.03,2.65,1.95,4.38,2.63c3.12,1.27,5.6,2.18,7.42,2.77c0.14,0.05,0.29,0.1,0.44,0.13c0.06,0.02,0.14,0.04,0.21,0.06v-0.01
		c0.18-0.33,0.3-0.71,0.36-1.1c0.02-0.16,0.03-0.31,0.04-0.47c0.03-0.65-0.12-1.21-0.45-1.69c-0.32-0.48-0.83-0.86-1.31-1.26
		c-0.48-0.38-0.93-0.78-1.16-1.35c-0.23-0.59-0.27-1.36-0.26-1.98c0.04-1.85-1.57-2.42-4.06-3c-1.14-0.28-2.44-0.55-3.63-0.81
		C8.75,8.32,7.14,8,5.95,7.81C5.79,7.78,5.64,7.76,5.49,7.74c-0.15-0.02-0.28-0.04-0.4-0.05H5.07C5.06,7.83,5.05,7.98,5.05,8.12z"/>
	<path fill-rule="evenodd" clip-rule="evenodd" fill="#9E1814" d="M5.05,8.12c0,1.1,0.4,2.07,0.79,3c0.54,1.36,1.32,2.58,2.78,3.69
		c1.36,1.03,2.65,1.95,4.38,2.63c3.12,1.27,5.6,2.18,7.42,2.77c0.14,0.05,0.29,0.1,0.44,0.13c0.06,0.02,0.14,0.04,0.21,0.05v0.01
		c0.07,0.01,0.15,0.03,0.22,0.05c0.09-0.07,0.16-0.17,0.22-0.27c0.16-0.22,0.3-0.48,0.39-0.76c-0.16-0.04-0.32-0.09-0.48-0.14
		c-0.05-0.01-0.12-0.03-0.17-0.05c-1.81-0.59-4.28-1.51-7.42-2.77c-1.73-0.68-3.02-1.6-4.38-2.63C8,12.73,7.23,11.52,6.68,10.16
		C6.38,9.4,6.06,8.64,5.95,7.81C5.79,7.78,5.64,7.76,5.49,7.74c-0.15-0.02-0.28-0.04-0.4-0.05C5.06,7.83,5.05,7.98,5.05,8.12z"/>
	<path fill-rule="evenodd" clip-rule="evenodd" fill="#383838" d="M20.87,10.88c-0.6,0.51-0.89,1.27-0.34,2.29
		c0.27,0.51,0.57,0.95,0.77,1.27c0.05,0.08,0.15,0.11,0.23,0.07c1.79-0.87,4.37-1.29,6.12-1.07c0.07,0.01,0.14-0.03,0.18-0.09
		c0.04-0.06,0.03-0.14-0.01-0.2c-0.42-0.59-1.22-1.58-1.46-1.87c-0.3-0.34-0.62-0.62-0.99-0.8C24.3,9.94,21.76,10.13,20.87,10.88
		L20.87,10.88z"/>
	<path fill-rule="evenodd" clip-rule="evenodd" fill="#7A130F" d="M11.53,13.14c-4.13,0.33-7.09,0.72-11.13,1.4
		c-0.59,0.13-0.41,1.11-0.14,1.29c0.64,0.38,1.42,0.77,2.33,1.16c5.31-0.16,9.25-0.26,13.6-0.46c0.54-0.27,0.72-1.25,0-1.79
		C14.81,14.27,13.26,13.74,11.53,13.14L11.53,13.14z"/>
	<path fill-rule="evenodd" clip-rule="evenodd" fill="#D1302D" d="M11.53,13.14c-4.13,0.33-7.09,0.72-11.13,1.4
		c-0.14,0.03-0.24,0.11-0.3,0.21c1.03,0.48,2.11,0.91,2.66,1.08c2.78,0,8.53-0.42,13.49-1.02c-0.02-0.02-0.05-0.04-0.07-0.06
		C14.81,14.27,13.26,13.74,11.53,13.14L11.53,13.14z"/>
	<path fill-rule="evenodd" clip-rule="evenodd" fill="#9E1814" d="M7.29,0.15l2.3,6.52C9.52,6.9,8.67,6.98,8.14,6.82L5.49,6.21
		l-0.5-6.13L5.61,0L7.29,0.15z"/>
	<polygon fill-rule="evenodd" clip-rule="evenodd" fill="#7A130F" points="7.67,3.75 7.88,4.72 2.55,4.61 1.25,4.23 1.25,3.64 
		5.33,3.23 	"/>
	<path fill-rule="evenodd" clip-rule="evenodd" fill="#383838" d="M15.63,11.44c-0.33,0.09-0.49,0.56-0.36,1.04
		c0.13,0.48,0.51,0.81,0.84,0.71c0.33-0.09,0.49-0.56,0.36-1.04C16.34,11.67,15.96,11.35,15.63,11.44L15.63,11.44z"/>
	<path fill-rule="evenodd" clip-rule="evenodd" fill="#383838" d="M12.29,10.51c-0.25,0.07-0.37,0.42-0.27,0.78
		c0.1,0.37,0.38,0.61,0.63,0.54c0.25-0.07,0.37-0.42,0.27-0.78C12.83,10.68,12.54,10.44,12.29,10.51L12.29,10.51z"/>
	<path fill-rule="evenodd" clip-rule="evenodd" fill="#383838" d="M9.23,9.57c-0.25,0.07-0.37,0.42-0.27,0.78
		c0.1,0.37,0.38,0.61,0.63,0.54c0.25-0.07,0.37-0.42,0.27-0.78C9.76,9.75,9.47,9.51,9.23,9.57L9.23,9.57z"/>
</g>
<g>
</g>
<g>
</g>
<g>
</g>
<g>
</g>
<g>
</g>
<g>
</g>
<g>
</g>
<g>
</g>
<g>
</g>
<g>
</g>
<g>
</g>
<g>
</g>
<g>
</g>
<g>
</g>
<g>
</g>
</svg>
