<?xml version="1.0" encoding="utf-8"?>
<!-- Generator: Adobe Illustrator 18.1.1, SVG Export Plug-In . SVG Version: 6.00 Build 0)  -->
<svg version="1.1" id="Слой_1" xmlns="http://www.w3.org/2000/svg" xmlns:xlink="http://www.w3.org/1999/xlink" x="0px" y="0px"
	 viewBox="0 0 32 20.9" enable-background="new 0 0 32 20.9" xml:space="preserve">
<g>
	<path fill-rule="evenodd" clip-rule="evenodd" fill="#9E1814" d="M27.07,11.47l-0.34,0.01L13.34,7.88l-5.7,0.39L0.16,9.29L0,11.36
		l0.77,3.68l12.09,4.93c4.17,0.95,8.74,1.18,13.73,0.68c2.19-1.38,3.87-3.7,5.03-6.96l0.03-0.11L32,11.07l-1.74-1.26l-2.14-0.53
		l-1.05,0.07V11.47z"/>
	<path fill-rule="evenodd" clip-rule="evenodd" fill="#383838" d="M27.07,11.47l-0.34,0.01L13.34,7.88l-5.7,0.39L0.16,9.29
		l10.3,3.62l5.59,1.92l12.47-0.68l3.05-0.36c0.02-0.04,0.03-0.08,0.05-0.12l0.03-0.11L32,11.07l-1.74-1.26l-2.14-0.53l-1.05,0.07
		V11.47z"/>
	<polygon fill-rule="evenodd" clip-rule="evenodd" fill="#9E1814" points="0.16,9.29 0,11.36 0.77,15.03 12.86,19.97 14.4,18.52 
		15.37,17.07 16.05,14.84 14.4,14.26 	"/>
	<polygon fill-rule="evenodd" clip-rule="evenodd" fill="#828282" points="3.19,4.3 11.21,3.24 23.78,4.78 24.94,11.46 23.88,12.33 
		18.27,13.2 14.02,13.39 2.8,9.43 	"/>
	<polygon fill-rule="evenodd" clip-rule="evenodd" fill="#D1D1D1" points="23.78,4.78 24.94,11.46 23.88,12.33 18.27,13.2 
		14.02,13.39 12.76,6.23 16.92,6.23 22.43,5.46 	"/>
	<polygon fill-rule="evenodd" clip-rule="evenodd" fill="#EFEFEF" points="23.88,12.33 18.27,13.2 16.92,6.23 22.43,5.46 	"/>
	<polygon fill-rule="evenodd" clip-rule="evenodd" fill="#A3A3A3" points="3.19,4.3 12.76,6.23 14.02,13.39 2.8,9.43 	"/>
	<path fill-rule="evenodd" clip-rule="evenodd" fill="#999999" d="M18.05,0.27c-0.35-0.35-3.54-0.35-3.89,0l0.05,4.88
		c1.28,0.26,2.78,0.26,3.84-0.1l0.01-0.08L18.05,0.27z"/>
	<path fill-rule="evenodd" clip-rule="evenodd" fill="#E6E6E6" d="M17.53,0.88c-0.26-0.27-2.59-0.27-2.85,0l0.04,3.64
		c0.93,0.19,2.04,0.19,2.81-0.07l0.01-0.06L17.53,0.88z"/>
	<path fill-rule="evenodd" clip-rule="evenodd" fill="#B5380B" d="M18.05,0.27c-0.35-0.35-3.54-0.35-3.89,0l0.02,1.61
		c0.32,0.33,3.74,0.21,3.88-0.02c0,0,0,0,0-0.01L18.05,0.27z"/>
	<path fill-rule="evenodd" clip-rule="evenodd" fill="#383838" d="M18.05,0.27c-0.35-0.35-3.54-0.35-3.89,0
		C14.33,0.62,17.9,0.5,18.05,0.27L18.05,0.27z"/>
	<path fill-rule="evenodd" clip-rule="evenodd" fill="#999999" d="M11.5,0.3c-0.29-0.29-2.89-0.29-3.17,0l0.04,3.98
		c1.04,0.21,2.27,0.21,3.13-0.08l0.01-0.07L11.5,0.3z"/>
	<path fill-rule="evenodd" clip-rule="evenodd" fill="#E6E6E6" d="M11.08,0.79c-0.21-0.22-2.12-0.22-2.33,0l0.03,2.97
		c0.76,0.15,1.66,0.15,2.3-0.06l0.01-0.05L11.08,0.79z"/>
	<path fill-rule="evenodd" clip-rule="evenodd" fill="#B5380B" d="M11.5,0.3c-0.29-0.29-2.89-0.29-3.17,0l0.01,1.32
		C8.6,1.88,11.39,1.78,11.5,1.6c0,0,0,0,0-0.01L11.5,0.3z"/>
	<path fill-rule="evenodd" clip-rule="evenodd" fill="#383838" d="M11.5,0.3c-0.29-0.29-2.89-0.29-3.17,0
		C8.47,0.58,11.39,0.49,11.5,0.3L11.5,0.3z"/>
	<polygon fill-rule="evenodd" clip-rule="evenodd" fill="#383838" points="15.68,12.09 15.05,7.83 17.41,7.79 22.56,6.89 
		23.22,6.56 23.94,10.72 23.93,10.72 23.48,11.14 18.12,11.98 	"/>
	<polygon fill-rule="evenodd" clip-rule="evenodd" fill="#9E1814" points="14.4,14.26 16.05,14.84 22.33,15.52 30.45,15.42 
		31.61,13.68 32,11.07 30.26,9.81 28.12,9.28 27.07,9.35 29,10.01 30.26,11.07 29.58,12.33 22.72,12.33 17.5,11.84 15.85,11.36 
		14.4,11.55 	"/>
	<polygon fill-rule="evenodd" clip-rule="evenodd" fill="#383838" points="11.42,7.44 12.18,11.74 6.53,9.87 6.76,6.43 	"/>
	<path fill-rule="evenodd" clip-rule="evenodd" fill="#7A130F" d="M0.54,13.85l0.23,1.19l12.09,4.93c4.17,0.95,8.74,1.18,13.73,0.68
		c2.19-1.38,3.87-3.7,5.03-6.96l0.03-0.11L32,11.07l-0.58-0.42l-0.46,1.77l-0.03,0.1c-1.16,3.26-2.54,5.57-4.73,6.95
		c-4.98,0.5-9.66,0.08-13.83-0.87L0.54,13.85z"/>
	<polygon fill-rule="evenodd" clip-rule="evenodd" fill="#FF3B37" points="32,11.07 30.26,9.81 28.12,9.28 27.07,9.35 29,10.01 
		30.26,11.07 29.58,12.33 22.72,12.33 17.5,11.84 15.85,11.36 14.4,11.55 16.63,12.33 22.62,13.1 30.74,13 	"/>
</g>
<g>
</g>
<g>
</g>
<g>
</g>
<g>
</g>
<g>
</g>
<g>
</g>
<g>
</g>
<g>
</g>
<g>
</g>
<g>
</g>
<g>
</g>
<g>
</g>
<g>
</g>
<g>
</g>
<g>
</g>
</svg>
