<?xml version="1.0" encoding="utf-8"?>
<!-- Generator: Adobe Illustrator 18.1.1, SVG Export Plug-In . SVG Version: 6.00 Build 0)  -->
<svg version="1.1" id="Слой_1" xmlns="http://www.w3.org/2000/svg" xmlns:xlink="http://www.w3.org/1999/xlink" x="0px" y="0px"
	 viewBox="0 0 32 19.63" enable-background="new 0 0 32 19.63" xml:space="preserve">
<g>
	<polygon fill-rule="evenodd" clip-rule="evenodd" fill="#848484" points="0,1.18 20.11,5.38 19.96,19.63 0.24,12.88 	"/>
	<polygon fill-rule="evenodd" clip-rule="evenodd" fill="#848484" points="20.11,5.38 32,3.72 10.97,0 0,1.18 	"/>
	<polygon fill-rule="evenodd" clip-rule="evenodd" fill="#AFAFAF" points="20.11,5.38 19.96,19.63 31.71,17.01 32,3.72 	"/>
	<polygon fill-rule="evenodd" clip-rule="evenodd" fill="#F24534" points="2.24,1.34 20.18,5.03 29.51,3.75 10.92,0.42 	"/>
	<polygon fill-rule="evenodd" clip-rule="evenodd" fill="#9B1515" points="0.92,2.39 19.14,6.4 19.01,18.17 1.11,12.22 	"/>
	<polygon fill-rule="evenodd" clip-rule="evenodd" fill="#D1302D" points="21.03,6.45 31.17,4.96 30.93,16.59 20.94,18.74 	"/>
	<polygon fill-rule="evenodd" clip-rule="evenodd" fill="#AD2D02" points="20.94,18.74 30.93,16.59 30.37,16.3 20.94,18.24 	"/>
	<path fill-rule="evenodd" clip-rule="evenodd" fill="#D3D3D3" d="M28.78,5.36L28.6,16.83c0.18,0.05,0.35,0.04,0.52,0L29.3,5.28
		L28.78,5.36z"/>
	<path fill-rule="evenodd" clip-rule="evenodd" fill="#D3D3D3" d="M22.85,6.17l-0.21,11.89c0.18,0.05,0.35,0.04,0.52,0l0.21-11.97
		L22.85,6.17z"/>
	<path fill-rule="evenodd" clip-rule="evenodd" fill="#D3D3D3" d="M25.78,5.76l-0.21,11.68c0.18,0.05,0.35,0.04,0.52,0L26.3,5.68
		L25.78,5.76z"/>
	<path fill-rule="evenodd" clip-rule="evenodd" fill="#B61C17" d="M1.55,2.53L1.5,12.5l0.53,0.19l0.39-0.09l0.04-9.87L1.55,2.53z
		 M3.12,2.88L3.07,13.02l0.56,0.2l0.41-0.09L4.09,3.09L3.12,2.88z M4.7,3.22L4.64,13.54l0.6,0.22l0.44-0.1L5.73,3.45L4.7,3.22z
		 M6.34,3.58L6.29,14.1l0.6,0.22l0.44-0.1l0.05-10.4L6.34,3.58z M8.05,3.96L8,14.67l0.63,0.23l0.46-0.11L9.13,4.2L8.05,3.96z
		 M9.79,4.34L9.74,15.26l0.63,0.23l0.46-0.11l0.05-10.8L9.79,4.34z M11.57,4.73l-0.06,11.09l0.63,0.23l0.46-0.11l0.05-10.97
		L11.57,4.73z M13.39,5.14l-0.06,11.28l0.63,0.23l0.46-0.11l0.05-11.16L13.39,5.14z M15.23,5.54l-0.06,11.54l0.63,0.23l0.46-0.11
		L16.3,5.77L15.23,5.54z M17.09,5.95l-0.06,11.72l0.63,0.23l0.46-0.11l0.05-11.61L17.09,5.95z"/>
</g>
<g>
</g>
<g>
</g>
<g>
</g>
<g>
</g>
<g>
</g>
<g>
</g>
<g>
</g>
<g>
</g>
<g>
</g>
<g>
</g>
<g>
</g>
<g>
</g>
<g>
</g>
<g>
</g>
<g>
</g>
</svg>
