<?xml version="1.0" encoding="utf-8"?>
<!-- Generator: Adobe Illustrator 18.1.1, SVG Export Plug-In . SVG Version: 6.00 Build 0)  -->
<svg version="1.1" id="Слой_1" xmlns="http://www.w3.org/2000/svg" xmlns:xlink="http://www.w3.org/1999/xlink" x="0px" y="0px"
	 viewBox="0 0 44.68 44.686" enable-background="new 0 0 44.68 44.686" xml:space="preserve">
<g>
	<path fill-rule="evenodd" clip-rule="evenodd" fill="#24A2F0" d="M22.34,44.686c12.306,0,22.34-10.035,22.34-22.343
		S34.646,0,22.34,0C10.034,0,0,10.035,0,22.343S10.034,44.686,22.34,44.686L22.34,44.686z"/>
	<path fill-rule="evenodd" clip-rule="evenodd" fill="#FFFFFF" d="M23.563,9.005L33.78,22.901c0.366,0.501,0.453,1.098,0.193,1.656
		c-0.27,0.559-0.799,0.886-1.416,0.886h-5.113v9.072c0,0.963-0.79,1.753-1.762,1.753h-6.683c-0.963,0-1.762-0.79-1.762-1.753v-9.072
		h-5.104c-0.616,0-1.146-0.327-1.416-0.886c-0.27-0.559-0.173-1.156,0.193-1.656L21.117,9.005c0.289-0.404,0.732-0.587,1.223-0.587
		C22.831,8.417,23.274,8.6,23.563,9.005L23.563,9.005z"/>
</g>
<g>
</g>
<g>
</g>
<g>
</g>
<g>
</g>
<g>
</g>
<g>
</g>
<g>
</g>
<g>
</g>
<g>
</g>
<g>
</g>
<g>
</g>
<g>
</g>
<g>
</g>
<g>
</g>
<g>
</g>
</svg>
