<?xml version="1.0" encoding="utf-8"?>
<!-- Generator: Adobe Illustrator 18.1.1, SVG Export Plug-In . SVG Version: 6.00 Build 0)  -->
<svg version="1.1" id="Слой_1" xmlns="http://www.w3.org/2000/svg" xmlns:xlink="http://www.w3.org/1999/xlink" x="0px" y="0px"
	 viewBox="0 0 44.67 44.686" enable-background="new 0 0 44.67 44.686" xml:space="preserve">
<g>
	<path fill-rule="evenodd" clip-rule="evenodd" fill="#FFFFFF" d="M22.33,43.164c11.469,0,20.828-9.351,20.828-20.821
		S33.799,1.522,22.33,1.522c-11.459,0-20.819,9.351-20.819,20.821S10.871,43.164,22.33,43.164L22.33,43.164z"/>
	<path fill="#24A2F0" d="M22.33,0c6.172,0,11.757,2.504,15.802,6.549c4.044,4.035,6.538,9.621,6.538,15.794
		s-2.494,11.759-6.538,15.794c-4.044,4.045-9.629,6.549-15.802,6.549c-6.163,0-11.748-2.504-15.792-6.549
		C2.494,34.102,0,28.516,0,22.343S2.494,10.584,6.538,6.549C10.583,2.504,16.168,0,22.33,0L22.33,0z M35.985,8.696
		C32.489,5.2,27.665,3.043,22.33,3.043c-5.325,0-10.149,2.157-13.645,5.653C5.2,12.183,3.033,17.017,3.033,22.343
		c0,5.326,2.167,10.16,5.652,13.646c3.495,3.496,8.32,5.653,13.645,5.653c5.335,0,10.159-2.157,13.654-5.653
		c3.486-3.486,5.652-8.321,5.652-13.646C41.637,17.017,39.471,12.183,35.985,8.696L35.985,8.696z"/>
	<path fill-rule="evenodd" clip-rule="evenodd" fill="#24A2F0" d="M23.264,10.17l9.292,22.16c0.183,0.433,0.144,0.934-0.116,1.31
		c-0.25,0.385-0.655,0.587-1.05,0.443l-9.061-3.351l-9.052,3.351c-0.395,0.144-0.799-0.058-1.05-0.443
		c-0.26-0.376-0.299-0.876-0.116-1.31l9.292-22.16c0.183-0.433,0.53-0.684,0.924-0.684C22.735,9.486,23.081,9.736,23.264,10.17
		L23.264,10.17z"/>
</g>
<g>
</g>
<g>
</g>
<g>
</g>
<g>
</g>
<g>
</g>
<g>
</g>
<g>
</g>
<g>
</g>
<g>
</g>
<g>
</g>
<g>
</g>
<g>
</g>
<g>
</g>
<g>
</g>
<g>
</g>
</svg>
