<?xml version="1.0" encoding="utf-8"?>
<!-- Generator: Adobe Illustrator 18.1.1, SVG Export Plug-In . SVG Version: 6.00 Build 0)  -->
<svg version="1.1" id="Слой_1" xmlns="http://www.w3.org/2000/svg" xmlns:xlink="http://www.w3.org/1999/xlink" x="0px" y="0px"
	 viewBox="0 0 20 27.52" enable-background="new 0 0 20 27.52" xml:space="preserve">
<g>
	<path fill-rule="evenodd" clip-rule="evenodd" fill="#393738" d="M5.08,5.31c-0.38,3.47,0.71,5.15-1.86,9.07l2.24,0.84
		c0.09,0.12,0.01,0.05,0.11,0.09l2.54-0.3c-0.03-0.17-0.04-0.07,0.07-0.18l1.76-3.53c0.06-0.27,0.07-0.14-0.03-0.35L8.94,5.08
		c0.21-0.31,0.5-0.59,0.84-0.84c0.36,0.32,0.63,0.71,0.82,1.18c0.38,0.98,0.69,2.31,0.71,3.74c0.03,1.69-0.69,4.62-0.05,5.93
		c0.34,0.71,1.19,1.01,2.22,1.02c0.03,0.07,0.05,0.14,0.08,0.21c0.17-0.07,0.32-0.15,0.48-0.23c1.87-0.15,4.12-1.08,5.11-2.19
		c-0.94-0.55-1.68-1.32-2.31-2.21c0.41-1.79,0.45-3.96,0.03-6.37c-0.05-0.51-0.09-1.13-0.32-1.77C15.53,0.67,12.3-0.8,8.81,0.44
		C6.81,1.16,5.33,3.07,5.08,5.31L5.08,5.31z M13.79,3.18c-0.19,0.28-0.37,0.6-0.53,0.98c-0.02-0.05-0.05-0.09-0.07-0.13
		c-0.17-0.3-0.4-0.57-0.66-0.82C12.96,3.14,13.38,3.13,13.79,3.18L13.79,3.18z"/>
	<path fill-rule="evenodd" clip-rule="evenodd" fill="#CCCCCC" d="M20,23.84c-0.7-5.74-4.88-9.51-10.35-9.54
		C4.2,15.02,0.28,18.38,0,25.09C4.68,29.41,19.02,27.33,20,23.84L20,23.84z"/>
	<path fill-rule="evenodd" clip-rule="evenodd" d="M20,23.84c-0.51-4.18-2.85-7.3-6.19-8.72l-0.09-0.03c0.4,3.2,0.13,5.44-0.71,7.67
		c-2.05-3.17-3.46-4.71-6.22-7.79C2.87,16.38,0.22,19.63,0,25.09C4.68,29.41,19.02,27.33,20,23.84L20,23.84z"/>
	<path fill-rule="evenodd" clip-rule="evenodd" fill="#4E4F52" d="M20,23.84c-0.04-0.3-0.09-0.59-0.14-0.87
		c-1.75,3.26-15.17,5.07-19.78,0.99C0.05,24.33,0.01,24.7,0,25.09C4.68,29.41,19.02,27.33,20,23.84L20,23.84z"/>
	<path fill-rule="evenodd" clip-rule="evenodd" fill="#DA9457" d="M13.72,15.09c-0.32-1.74-0.26-2.76-0.36-4.27
		C13.08,8.31,9.1,7.51,7.42,9.75c-0.28,1.96-0.28,3.32-0.63,5.22c0.81,0.79,1.74,1.84,2.76,3.07c1.8,1.45,3.55,1.84,4.21,0.58
		C13.82,17.53,13.81,16.36,13.72,15.09L13.72,15.09z"/>
	<path fill-rule="evenodd" clip-rule="evenodd" fill="#BABDBF" d="M2.47,17.91C1.02,19.65,0.13,22.02,0,25.09
		c1.41,1.31,3.71,2.03,6.25,2.3C5.97,21.68,4.29,18,2.47,17.91L2.47,17.91z"/>
	<path fill-rule="evenodd" clip-rule="evenodd" fill="#BABDBF" d="M20,23.84c-0.26-2.17-1.02-4.05-2.16-5.56
		c0.19,2.21,0.07,5.56-0.26,7.65C18.88,25.34,19.78,24.62,20,23.84L20,23.84z"/>
	<path fill-rule="evenodd" clip-rule="evenodd" fill="#575455" d="M19.16,13.91c-0.98,0.83-3.33,1.84-4.1-0.14
		c-0.49-1.26-0.04-3.25-0.06-4.87c-0.02-1.37-0.25-2.66-0.55-3.6c-0.41-1.3-1.37-2-2.85-2.19c1.57-1.85,3.97-1.04,4.83,0.84
		C17.86,7.05,16.6,12.03,19.16,13.91L19.16,13.91z"/>
	<path fill-rule="evenodd" clip-rule="evenodd" fill="#EFAA64" d="M7.42,10.73C7.18,9.61,7.1,8.67,7.12,7.85
		C7.2,4.4,8.9,1.97,12.59,2.4c3.29,0.38,4.34,3.05,4.18,6.17c-0.17,3.22-1.59,6.82-4.74,6.68C10.23,15.18,8.38,13.83,7.42,10.73
		L7.42,10.73z"/>
	<path fill-rule="evenodd" clip-rule="evenodd" fill="#EFC090" d="M8.44,5.5c0.66-1.48,1.98-2.34,4.07-2.09
		c2.74,0.32,3.62,2.55,3.48,5.15c-0.09,1.72-0.6,3.57-1.65,4.65c-0.46,0.23-0.98,0.34-1.57,0.32c-1.63-0.07-3.31-1.3-4.18-4.12
		C8.37,8.38,8.3,7.53,8.32,6.79C8.33,6.33,8.37,5.9,8.44,5.5L8.44,5.5z"/>
	<path fill-rule="evenodd" clip-rule="evenodd" fill="#CCCCCC" d="M10.97,16.11c-1.12-0.28-2.02-0.61-3.54-1.33
		c-0.4,0.15-1.23,0.44-1.64,0.62c2.46,1.78,5,5,7.08,7.94c0.75-1.05,1.88-4.04,2.25-6.54c0.04-0.26,0.13-0.63,0.15-0.9
		c-0.49-0.31-1-0.58-1.54-0.8c-0.08,0.32-0.46,0.78-0.71,1c0,1.22,0.05,2.96,0.05,4.37l-0.69,0.03
		C11.82,18.75,11.41,17.22,10.97,16.11L10.97,16.11z"/>
	<path fill-rule="evenodd" clip-rule="evenodd" fill="#575455" d="M3.22,14.37c1.29,0.86,4.26,2.15,5.26,0.1
		c0.64-1.31,0.15-3.62,0.18-5.31c0.01-0.87,0.13-1.7,0.31-2.44c0.17,0.15,0.36,0.24,0.58,0.24c0.24,0,0.46-0.11,0.62-0.28
		c0.18,0.26,0.44,0.42,0.74,0.42c0.48,0,0.88-0.42,0.95-0.97c0.13,0.07,0.27,0.11,0.42,0.11c0.05,0,0.11-0.01,0.16-0.01
		c0.18,0.28,0.46,0.48,0.78,0.48c0.32,0,0.6-0.19,0.78-0.48c0.22,0.38,0.59,0.63,1,0.63c0.56,0,1.03-0.45,1.17-1.06
		c0.18,0.24,0.44,0.4,0.73,0.4c0.54,0,0.96-0.52,0.96-1.16c0-0.3-0.1-0.58-0.26-0.79c-0.11-0.13-0.4-0.42-0.83-0.49
		c-0.48-1.18-2.17-1.94-3.09-2.06c-0.89-0.11-1.92-0.03-3.08,0.25l0,0c-0.56,0.12-1.1,0.38-1.65,0.75
		c-3.05,2.06-1.93,6.16-2.23,8.92C6.54,13.31,5.81,14.5,3.22,14.37L3.22,14.37z"/>
	<path fill-rule="evenodd" clip-rule="evenodd" fill="#4E4F52" d="M7.39,27.2c1.09,0.07,2.78,0.03,3.88-0.07
		c-0.04-1.52-0.08-2.29-0.11-3.32c-1.21,0.21-2.58,0.23-3.82,0.09C7.34,25.11,7.36,26.12,7.39,27.2L7.39,27.2z"/>
</g>
<g>
</g>
<g>
</g>
<g>
</g>
<g>
</g>
<g>
</g>
<g>
</g>
<g>
</g>
<g>
</g>
<g>
</g>
<g>
</g>
<g>
</g>
<g>
</g>
<g>
</g>
<g>
</g>
<g>
</g>
</svg>
