<?xml version="1.0" encoding="utf-8"?>
<!-- Generator: Adobe Illustrator 18.1.1, SVG Export Plug-In . SVG Version: 6.00 Build 0)  -->
<svg version="1.1" id="Слой_1" xmlns="http://www.w3.org/2000/svg" xmlns:xlink="http://www.w3.org/1999/xlink" x="0px" y="0px"
	 viewBox="0 0 44.68 44.69" enable-background="new 0 0 44.68 44.69" xml:space="preserve">
<g>
	<path fill-rule="evenodd" clip-rule="evenodd" fill="#FFFFFF" d="M22.34,43.16c11.47,0,20.82-9.35,20.82-20.82
		S33.81,1.52,22.34,1.52c-11.47,0-20.82,9.35-20.82,20.82S10.87,43.16,22.34,43.16L22.34,43.16z"/>
	<path fill="#22CF19" d="M22.34,0c6.17,0,11.76,2.5,15.8,6.54c4.03,4.04,6.54,9.63,6.54,15.8c0,6.16-2.5,11.75-6.54,15.79
		c-4.04,4.04-9.63,6.55-15.8,6.55c-6.16,0-11.75-2.5-15.79-6.55C2.5,34.09,0,28.51,0,22.34c0-6.17,2.5-11.76,6.55-15.8
		C10.59,2.5,16.18,0,22.34,0L22.34,0z M35.98,8.7c-3.49-3.5-8.31-5.65-13.64-5.65C17.02,3.04,12.19,5.2,8.7,8.7
		c-3.5,3.49-5.65,8.31-5.65,13.65c0,5.33,2.16,10.15,5.65,13.65s8.32,5.65,13.64,5.65c5.33,0,10.16-2.16,13.64-5.65
		c3.5-3.5,5.65-8.32,5.65-13.65C41.64,17.01,39.48,12.18,35.98,8.7L35.98,8.7z"/>
	<path fill-rule="evenodd" clip-rule="evenodd" fill="#22CF19" d="M23.49,9.91L33,22.86c0.34,0.46,0.42,1.03,0.17,1.54
		c-0.24,0.52-0.74,0.83-1.31,0.83H27.1v8.46c0,0.9-0.74,1.64-1.64,1.64h-6.23c-0.91,0-1.64-0.74-1.64-1.64v-8.46h-4.77
		c-0.58,0-1.07-0.31-1.32-0.83c-0.25-0.51-0.16-1.08,0.17-1.54L21.2,9.91c0.27-0.38,0.68-0.55,1.14-0.55
		C22.8,9.36,23.21,9.53,23.49,9.91L23.49,9.91z"/>
</g>
<g>
</g>
<g>
</g>
<g>
</g>
<g>
</g>
<g>
</g>
<g>
</g>
<g>
</g>
<g>
</g>
<g>
</g>
<g>
</g>
<g>
</g>
<g>
</g>
<g>
</g>
<g>
</g>
<g>
</g>
</svg>
