<?xml version="1.0" encoding="utf-8"?>
<!-- Generator: Adobe Illustrator 18.1.1, SVG Export Plug-In . SVG Version: 6.00 Build 0)  -->
<svg version="1.1" id="Слой_1" xmlns="http://www.w3.org/2000/svg" xmlns:xlink="http://www.w3.org/1999/xlink" x="0px" y="0px"
	 viewBox="0 0 44.67 44.686" enable-background="new 0 0 44.67 44.686" xml:space="preserve">
<g>
	<path fill-rule="evenodd" clip-rule="evenodd" fill="#FFFFFF" d="M22.33,43.164c11.469,0,20.828-9.351,20.828-20.821
		S33.799,1.522,22.33,1.522c-11.459,0-20.819,9.351-20.819,20.821S10.871,43.164,22.33,43.164L22.33,43.164z"/>
	<path fill="#24A2F0" d="M22.33,0c6.172,0,11.757,2.504,15.802,6.539c4.044,4.045,6.538,9.631,6.538,15.804
		c0,6.164-2.494,11.749-6.538,15.794c-4.044,4.045-9.629,6.549-15.802,6.549c-6.163,0-11.748-2.504-15.792-6.549
		C2.494,34.092,0,28.506,0,22.343C0,16.17,2.494,10.584,6.538,6.539C10.583,2.504,16.168,0,22.33,0L22.33,0z M35.985,8.696
		C32.489,5.2,27.665,3.043,22.33,3.043c-5.325,0-10.149,2.157-13.645,5.653C5.2,12.183,3.033,17.007,3.033,22.343
		c0,5.326,2.167,10.151,5.652,13.646c3.495,3.496,8.32,5.653,13.645,5.653c5.335,0,10.159-2.157,13.654-5.653
		c3.486-3.496,5.652-8.321,5.652-13.646C41.637,17.007,39.471,12.183,35.985,8.696L35.985,8.696z"/>
	<path fill-rule="evenodd" clip-rule="evenodd" fill="#24A2F0" d="M23.476,9.91l9.514,12.953c0.347,0.462,0.433,1.03,0.183,1.541
		c-0.25,0.52-0.741,0.828-1.319,0.828h-4.767v8.456c0,0.896-0.732,1.637-1.637,1.637h-6.23c-0.905,0-1.637-0.742-1.637-1.637v-8.456
		h-4.767c-0.578,0-1.069-0.308-1.319-0.828c-0.25-0.51-0.164-1.079,0.183-1.541L21.194,9.91c0.27-0.376,0.684-0.549,1.136-0.549
		C22.793,9.361,23.207,9.534,23.476,9.91L23.476,9.91z"/>
</g>
<g>
</g>
<g>
</g>
<g>
</g>
<g>
</g>
<g>
</g>
<g>
</g>
<g>
</g>
<g>
</g>
<g>
</g>
<g>
</g>
<g>
</g>
<g>
</g>
<g>
</g>
<g>
</g>
<g>
</g>
</svg>
