<?xml version="1.0" encoding="utf-8"?>
<!-- Generator: Adobe Illustrator 18.1.1, SVG Export Plug-In . SVG Version: 6.00 Build 0)  -->
<svg version="1.1" id="Слой_1" xmlns="http://www.w3.org/2000/svg" xmlns:xlink="http://www.w3.org/1999/xlink" x="0px" y="0px"
	 viewBox="0 0 20.01 29.58" enable-background="new 0 0 20.01 29.58" xml:space="preserve">
<g>
	<path fill-rule="evenodd" clip-rule="evenodd" fill="#BACAD9" d="M20,25.9c-0.7-5.74-4.88-9.51-10.35-9.54
		c-0.9,0.12-1.76,0.31-2.57,0.57C7,16.88,6.92,16.82,6.84,16.75c-0.01,0.09-0.03,0.19-0.05,0.28C2.87,18.44,0.22,21.68,0,27.14
		C4.68,31.47,19.02,29.38,20,25.9L20,25.9z"/>
	<path fill-rule="evenodd" clip-rule="evenodd" fill="#E0E9F6" d="M20,25.9c-0.51-4.18-2.86-7.31-6.2-8.72l-0.05,0.07
		c0.38,2.66,0.66,7.73-0.46,10.25c-1.32-2.37-3.67-7.57-6.5-10.47C2.87,18.44,0.22,21.68,0,27.14C4.68,31.47,19.02,29.38,20,25.9
		L20,25.9z"/>
	<path fill-rule="evenodd" clip-rule="evenodd" fill="#91ACC4" d="M2.51,19.93c-1.49,1.77-2.39,4.18-2.48,7.32
		c1.61,1.46,4.33,2.15,7.26,2.3C6.9,26,5.23,22.39,2.51,19.93L2.51,19.93z"/>
	<path fill-rule="evenodd" clip-rule="evenodd" fill="#91ACC4" d="M20.01,25.78c-0.29-2.18-1.08-4.06-2.24-5.56
		c0.05,2.88-0.23,5.59-0.84,8.02C18.6,27.6,19.82,26.84,20.01,25.78L20.01,25.78z"/>
	<path fill-rule="evenodd" clip-rule="evenodd" fill="#DA9457" d="M7.42,11.81c1.68-2.24,5.66-1.44,5.95,1.08
		c0.11,1.54,0.03,2.56,0.38,4.37c0.03,0.17,0.05,0.32,0.07,0.49c-0.18,0.68-0.47,1.65-0.94,2.06c-0.24,0.07-0.57,0.12-0.95,0.09
		c-1.31-0.57-3.59-1.93-5.08-3.14C7.14,14.99,7.16,13.67,7.42,11.81z"/>
	<polygon fill-rule="evenodd" clip-rule="evenodd" fill="#45515E" points="13.53,28.53 14.77,26.56 12.96,20.56 11.85,20.63 
		11.38,27.03 	"/>
	<path fill-rule="evenodd" clip-rule="evenodd" fill="#45515E" d="M11.69,19.92l-0.98,0.8c0.44,0.38,1.41,1.07,2.02,1.31l1.2-1.76
		l-0.75-0.5L11.69,19.92z"/>
	<path fill-rule="evenodd" clip-rule="evenodd" fill="#91ACC4" d="M11.94,19.89l-2.01,2.13l-3.61-4.81c0.01-0.1,0.56-0.93,0.61-1.03
		C8.81,17.46,10.1,18.59,11.94,19.89L11.94,19.89z"/>
	<polygon fill-rule="evenodd" clip-rule="evenodd" fill="#91ACC4" points="12.87,19.8 14.4,21.47 14.69,17.61 13.86,17.21 
		13.74,17.25 	"/>
	<polygon fill-rule="evenodd" clip-rule="evenodd" fill="#F8AA25" points="10.54,24.59 8.91,25.96 6.76,24.83 8.84,25.02 	"/>
	<path fill-rule="evenodd" clip-rule="evenodd" fill="#EFAA64" d="M7.23,13.02c-0.37-1.18-0.54-2.17-0.59-3.06
		c-0.22-3.71,1.39-6.48,5.4-6.36c3.57,0.11,4.95,2.89,5.06,6.25c0.11,3.47-1.08,7.46-4.5,7.61C10.66,17.55,8.56,16.26,7.23,13.02
		L7.23,13.02z"/>
	<path fill-rule="evenodd" clip-rule="evenodd" fill="#EFC090" d="M7.52,7.81c0.57-1.64,1.91-2.67,4.17-2.61
		c2.96,0.09,4.1,2.39,4.2,5.18c0.06,1.84-0.32,3.86-1.35,5.11c-0.47,0.28-1.01,0.45-1.64,0.48c-1.75,0.08-3.66-1.08-4.85-4.01
		c-0.33-1.07-0.49-1.97-0.54-2.77C7.48,8.71,7.48,8.25,7.52,7.81L7.52,7.81z"/>
	<path fill-rule="evenodd" clip-rule="evenodd" fill="#555559" d="M7.6,11.28c-0.03,0.11-0.2,0.67-0.2,0.68
		c-0.11,0.94-0.19,1.94-0.29,2.71c-0.94-1.28-1.63-2.76-1.86-4.27C5,8.68,4.92,7,5.43,5.67c0.79-2.07,3.35-2.91,5.38-3.05
		c1.82-0.13,5.32,0.5,5.83,2.38c0.3,0.85,0.22,1.75,0.13,2.51c-0.07-0.3-0.33-0.96-0.83-0.83c-0.68,0.23-1.39,0.37-2.15,0.38
		c-0.73,0.01-1.5-0.11-2.33-0.38C9.71,6.19,8.4,8.07,8.74,10.26c0.07,0.36,0.07,0.63-0.01,0.7C8.47,11.15,7.67,11.27,7.6,11.28
		L7.6,11.28z"/>
	<path fill-rule="evenodd" clip-rule="evenodd" fill="#EFAA64" d="M8.11,11.62c-0.06-0.19-0.14-0.46-0.22-0.69
		c-0.08-0.22-0.16-0.4-0.32-0.57c-0.16-0.16-0.39-0.3-0.66-0.31c-0.26-0.01-0.57,0.13-0.75,0.43c-0.17,0.3-0.22,0.76-0.07,1.22
		c0.14,0.45,0.48,0.9,0.75,1.16c0.28,0.26,0.49,0.33,0.7,0.32c0.2-0.01,0.41-0.09,0.54-0.23c0.13-0.14,0.2-0.33,0.22-0.5
		c0.02-0.17,0-0.3-0.04-0.42C8.22,11.91,8.17,11.8,8.11,11.62L8.11,11.62z"/>
	<path fill-rule="evenodd" clip-rule="evenodd" fill="#81A1C3" d="M16.92,5.12C14.13,5.96,8.25,6.24,5.13,5.54
		c-0.32-0.37-1-1.22-1.08-1.82c-0.11-0.8,3.12-2.13,6.95-3.03c3.83-0.89,7.33-0.93,7.44-0.13c0.01,0.04,0.01,0.07,0,0.11
		C18.37,2.44,17.67,3.9,16.92,5.12L16.92,5.12z"/>
	<path fill-rule="evenodd" clip-rule="evenodd" fill="#668AB0" d="M4.21,4.28C4.14,4.09,4.08,3.9,4.06,3.73
		c-0.11-0.8,3.12-2.13,6.95-3.03c3.83-0.89,7.33-0.93,7.44-0.13c0.01,0.04,0.01,0.07,0,0.11c-0.01,0.24-0.03,0.48-0.05,0.71
		c-0.44-0.65-3.96-0.54-7.39,0.26C7.57,2.45,4.87,3.47,4.21,4.28L4.21,4.28z"/>
	<path fill-rule="evenodd" clip-rule="evenodd" fill="#4E4F52" d="M17.05,6.76c-3.44,0.4-6.57,0.59-9.4,0.56
		c1.21,1.09,5.28,2.25,7.72,2.11C16.74,9.34,18.22,8.42,17.05,6.76L17.05,6.76z"/>
	<polygon fill-rule="evenodd" clip-rule="evenodd" fill="#F8AA25" points="16.95,2.05 15.04,3.76 12.4,2.48 14.91,2.63 	"/>
	<path fill-rule="evenodd" clip-rule="evenodd" fill="#F8AA25" d="M17.05,6.76l-0.13-1.64C13.01,5.68,8.81,5.96,5.13,5.54L5.09,7.2
		C9.2,7.57,13.95,7.51,17.05,6.76L17.05,6.76z"/>
	<g>
		<path fill-rule="evenodd" clip-rule="evenodd" fill="#4E4F52" d="M6.76,9.12c-0.69,0.14-1.06,1.25-0.81,2.48
			c0.24,1.23,1,2.12,1.69,1.98c0.69-0.13,1.05-1.24,0.81-2.48C8.21,9.87,7.45,8.99,6.76,9.12L6.76,9.12z"/>
		<path fill="#666666" d="M13.16,15.76c0.2-0.03,0.33-0.21,0.3-0.41c-0.03-0.2-0.21-0.34-0.41-0.31c-1.06,0.16-2.89,0.01-3.94-0.14
			c-0.5-0.55-0.93-1.14-1.31-1.74c-0.43-0.68-0.77-1.37-1.04-2.06c-0.07-0.19-0.28-0.28-0.47-0.21c-0.19,0.07-0.28,0.28-0.21,0.47
			c0.28,0.73,0.65,1.47,1.1,2.19c0.42,0.67,0.91,1.33,1.48,1.94l0.09,0.1l0.12,0.01C10.03,15.77,12.01,15.93,13.16,15.76
			L13.16,15.76z"/>
	</g>
</g>
<g>
</g>
<g>
</g>
<g>
</g>
<g>
</g>
<g>
</g>
<g>
</g>
<g>
</g>
<g>
</g>
<g>
</g>
<g>
</g>
<g>
</g>
<g>
</g>
<g>
</g>
<g>
</g>
<g>
</g>
</svg>
