<?xml version="1.0" encoding="utf-8"?>
<!-- Generator: Adobe Illustrator 18.1.1, SVG Export Plug-In . SVG Version: 6.00 Build 0)  -->
<svg version="1.1" id="Слой_1" xmlns="http://www.w3.org/2000/svg" xmlns:xlink="http://www.w3.org/1999/xlink" x="0px" y="0px"
	 viewBox="0 0 44.67 44.69" enable-background="new 0 0 44.67 44.69" xml:space="preserve">
<g>
	<path fill-rule="evenodd" clip-rule="evenodd" fill="#F54444" d="M22.33,44.69c12.31,0,22.34-10.03,22.34-22.34S34.64,0,22.33,0
		C10.03,0,0,10.03,0,22.34S10.03,44.69,22.33,44.69L22.33,44.69z"/>
	<path fill-rule="evenodd" clip-rule="evenodd" fill="#FFFFFF" d="M23.33,9.27l9.97,23.79c0.2,0.46,0.15,0.99-0.12,1.41
		c-0.28,0.41-0.71,0.63-1.13,0.47l-9.73-3.59l-9.72,3.59c-0.41,0.15-0.85-0.06-1.13-0.47c-0.27-0.41-0.32-0.94-0.12-1.41l9.97-23.79
		c0.19-0.45,0.57-0.73,0.99-0.73C22.76,8.54,23.14,8.82,23.33,9.27L23.33,9.27z"/>
</g>
<g>
</g>
<g>
</g>
<g>
</g>
<g>
</g>
<g>
</g>
<g>
</g>
<g>
</g>
<g>
</g>
<g>
</g>
<g>
</g>
<g>
</g>
<g>
</g>
<g>
</g>
<g>
</g>
<g>
</g>
</svg>
