<?xml version="1.0" encoding="utf-8"?>
<!-- Generator: Adobe Illustrator 18.1.1, SVG Export Plug-In . SVG Version: 6.00 Build 0)  -->
<svg version="1.1" id="Слой_1" xmlns="http://www.w3.org/2000/svg" xmlns:xlink="http://www.w3.org/1999/xlink" x="0px" y="0px"
	 viewBox="0 0 44.68 44.69" enable-background="new 0 0 44.68 44.69" xml:space="preserve">
<path fill-rule="evenodd" clip-rule="evenodd" fill="#22CF19" d="M22.34,44.69c12.31,0,22.34-10.03,22.34-22.34S34.65,0,22.34,0
	S0,10.04,0,22.34S10.03,44.69,22.34,44.69L22.34,44.69z"/>
<path fill-rule="evenodd" clip-rule="evenodd" fill="#FFFFFF" d="M23.56,9l10.22,13.9c0.37,0.5,0.45,1.1,0.18,1.66
	c-0.26,0.56-0.79,0.89-1.41,0.89h-5.11v9.07c0,0.96-0.79,1.75-1.76,1.75H19c-0.97,0-1.76-0.79-1.76-1.75v-9.07h-5.11
	c-0.62,0-1.15-0.33-1.41-0.89C10.45,24,10.53,23.4,10.9,22.9L21.12,9c0.29-0.4,0.73-0.59,1.22-0.59C22.83,8.42,23.27,8.6,23.56,9
	L23.56,9z"/>
<g>
</g>
<g>
</g>
<g>
</g>
<g>
</g>
<g>
</g>
<g>
</g>
<g>
</g>
<g>
</g>
<g>
</g>
<g>
</g>
<g>
</g>
<g>
</g>
<g>
</g>
<g>
</g>
<g>
</g>
</svg>
