<?xml version="1.0" encoding="utf-8"?>
<!-- Generator: Adobe Illustrator 18.1.1, SVG Export Plug-In . SVG Version: 6.00 Build 0)  -->
<svg version="1.1" id="Слой_1" xmlns="http://www.w3.org/2000/svg" xmlns:xlink="http://www.w3.org/1999/xlink" x="0px" y="0px"
	 viewBox="0 0 44.68 44.686" enable-background="new 0 0 44.68 44.686" xml:space="preserve">
<g>
	<path fill-rule="evenodd" clip-rule="evenodd" fill="#24A2F0" d="M22.34,44.686c12.306,0,22.34-10.035,22.34-22.343
		S34.646,0,22.34,0C10.034,0,0,10.035,0,22.343S10.034,44.686,22.34,44.686L22.34,44.686z"/>
	<path fill-rule="evenodd" clip-rule="evenodd" fill="#FFFFFF" d="M23.341,9.274l9.966,23.787c0.202,0.462,0.154,0.992-0.125,1.406
		c-0.27,0.414-0.703,0.626-1.117,0.472l-9.726-3.592l-9.716,3.592c-0.424,0.154-0.857-0.058-1.127-0.472
		c-0.27-0.414-0.318-0.944-0.125-1.406l9.976-23.787c0.193-0.453,0.558-0.732,0.992-0.732C22.773,8.542,23.149,8.822,23.341,9.274
		L23.341,9.274z"/>
</g>
<g>
</g>
<g>
</g>
<g>
</g>
<g>
</g>
<g>
</g>
<g>
</g>
<g>
</g>
<g>
</g>
<g>
</g>
<g>
</g>
<g>
</g>
<g>
</g>
<g>
</g>
<g>
</g>
<g>
</g>
</svg>
