<?xml version="1.0" encoding="utf-8"?>
<!-- Generator: Adobe Illustrator 18.1.1, SVG Export Plug-In . SVG Version: 6.00 Build 0)  -->
<svg version="1.1" id="Слой_1" xmlns="http://www.w3.org/2000/svg" xmlns:xlink="http://www.w3.org/1999/xlink" x="0px" y="0px"
	 viewBox="0 0 44.67 44.69" enable-background="new 0 0 44.67 44.69" xml:space="preserve">
<g>
	<path fill-rule="evenodd" clip-rule="evenodd" fill="#FFFFFF" d="M22.33,43.16c11.47,0,20.83-9.35,20.83-20.82
		S33.8,1.52,22.33,1.52c-11.46,0-20.82,9.35-20.82,20.82S10.87,43.16,22.33,43.16L22.33,43.16z"/>
	<path fill="#EBB40E" d="M22.33,0c6.17,0,11.76,2.5,15.8,6.55c4.04,4.04,6.54,9.62,6.54,15.79s-2.49,11.76-6.54,15.79
		c-4.04,4.04-9.63,6.55-15.8,6.55c-6.16,0-11.75-2.5-15.79-6.55C2.49,34.1,0,28.52,0,22.34S2.49,10.58,6.54,6.55
		C10.58,2.5,16.17,0,22.33,0L22.33,0z M35.98,8.7c-3.5-3.5-8.32-5.65-13.65-5.65c-5.33,0-10.15,2.16-13.64,5.65
		c-3.49,3.49-5.65,8.32-5.65,13.65c0,5.33,2.17,10.16,5.65,13.65c3.5,3.5,8.32,5.65,13.64,5.65c5.33,0,10.16-2.16,13.65-5.65
		c3.49-3.49,5.65-8.32,5.65-13.65C41.64,17.02,39.47,12.18,35.98,8.7L35.98,8.7z"/>
	<path fill-rule="evenodd" clip-rule="evenodd" fill="#EBB40E" d="M23.26,10.17l9.29,22.16c0.18,0.43,0.14,0.93-0.12,1.31
		c-0.25,0.39-0.65,0.59-1.05,0.44l-9.06-3.35l-9.05,3.35c-0.39,0.14-0.8-0.06-1.05-0.44c-0.26-0.38-0.3-0.88-0.12-1.31l9.29-22.16
		c0.18-0.43,0.53-0.68,0.92-0.68C22.73,9.49,23.08,9.74,23.26,10.17L23.26,10.17z"/>
</g>
<g>
</g>
<g>
</g>
<g>
</g>
<g>
</g>
<g>
</g>
<g>
</g>
<g>
</g>
<g>
</g>
<g>
</g>
<g>
</g>
<g>
</g>
<g>
</g>
<g>
</g>
<g>
</g>
<g>
</g>
</svg>
