<?xml version="1.0" encoding="utf-8"?>
<!-- Generator: Adobe Illustrator 18.1.1, SVG Export Plug-In . SVG Version: 6.00 Build 0)  -->
<svg version="1.1" id="Слой_1" xmlns="http://www.w3.org/2000/svg" xmlns:xlink="http://www.w3.org/1999/xlink" x="0px" y="0px"
	 viewBox="0 0 32.204 38.079" enable-background="new 0 0 32.204 38.079" xml:space="preserve">
<path fill-rule="evenodd" clip-rule="evenodd" fill="#24A2F0" d="M17.775,0.799L31.737,19.8c0.501,0.684,0.616,1.512,0.26,2.273
	c-0.366,0.761-1.098,1.213-1.936,1.213h-6.991v12.385c0,1.319-1.078,2.408-2.398,2.408h-9.138c-1.329,0-2.407-1.079-2.407-2.408
	V23.287H2.137c-0.838,0-1.56-0.453-1.926-1.213c-0.366-0.761-0.241-1.589,0.26-2.273L14.424,0.799C14.828,0.26,15.425,0,16.099,0
	C16.773,0,17.38,0.26,17.775,0.799L17.775,0.799z"/>
<g>
</g>
<g>
</g>
<g>
</g>
<g>
</g>
<g>
</g>
<g>
</g>
<g>
</g>
<g>
</g>
<g>
</g>
<g>
</g>
<g>
</g>
<g>
</g>
<g>
</g>
<g>
</g>
<g>
</g>
</svg>
