<?xml version="1.0" encoding="utf-8"?>
<!-- Generator: Adobe Illustrator 18.1.1, SVG Export Plug-In . SVG Version: 6.00 Build 0)  -->
<svg version="1.1" id="Слой_1" xmlns="http://www.w3.org/2000/svg" xmlns:xlink="http://www.w3.org/1999/xlink" x="0px" y="0px"
	 viewBox="0 0 20 26.97" enable-background="new 0 0 20 26.97" xml:space="preserve">
<g>
	<path fill-rule="evenodd" clip-rule="evenodd" fill="#CCCCCC" d="M20,23.29c-0.7-5.74-4.88-9.51-10.35-9.54
		c-0.91,0.12-1.76,0.31-2.57,0.57C7,14.27,6.92,14.21,6.84,14.14c-0.02,0.09-0.03,0.19-0.05,0.28C2.86,15.83,0.22,19.07,0,24.54
		C4.68,28.87,19.02,26.78,20,23.29L20,23.29z"/>
	<path fill-rule="evenodd" clip-rule="evenodd" d="M20,23.29c-0.52-4.18-2.86-7.31-6.21-8.72l-0.05,0.07
		c0.38,2.66,0.81,7.61-0.31,10.12c-1.32-2.37-3.82-7.44-6.65-10.34C2.86,15.83,0.22,19.07,0,24.54C4.68,28.87,19.02,26.78,20,23.29
		L20,23.29z"/>
	<path fill-rule="evenodd" clip-rule="evenodd" fill="#BABDBF" d="M2.56,17.24C1.06,18.99,0.13,21.4,0,24.54
		c1.59,1.47,4.31,2.2,7.23,2.39C6.88,23.35,5.25,19.73,2.56,17.24L2.56,17.24z"/>
	<path fill-rule="evenodd" clip-rule="evenodd" fill="#BABDBF" d="M20,23.29c-0.27-2.18-1.03-4.07-2.18-5.58
		c0.03,2.88-0.28,5.52-0.93,7.94C18.57,25.02,19.74,24.2,20,23.29L20,23.29z"/>
	<path fill-rule="evenodd" clip-rule="evenodd" fill="#DA9457" d="M7.42,9.2c1.68-2.24,5.66-1.44,5.95,1.08
		c0.1,1.54,0.03,2.56,0.38,4.37c0.02,0.17,0.05,0.32,0.07,0.49c-0.19,0.68-0.89,1.61-1.36,2.02c-1.68-0.46-3.7-1.46-5.61-3.01
		C7.14,12.39,7.15,11.06,7.42,9.2z"/>
	<path fill-rule="evenodd" clip-rule="evenodd" fill="#4E4F52" d="M13.43,24.77c-2.33-4.62-4.54-8.06-6.65-10.34
		C6.28,15.29,6,16.2,5.74,17.35C7.56,19.73,10.92,22.81,13.43,24.77L13.43,24.77z"/>
	<path fill-rule="evenodd" clip-rule="evenodd" fill="#4E4F52" d="M13.74,14.65c0.65,3.67,0.56,7.05-0.31,10.12
		c1.4-2.23,2.33-5.17,2.37-8.14C15.54,16.2,14.56,15.08,13.74,14.65L13.74,14.65z"/>
	<path fill-rule="evenodd" clip-rule="evenodd" d="M12.28,16.43c-0.26,0.03-0.5,0.16-0.65,0.36l-2.16-0.33
		c-0.14-0.02-0.27,0.04-0.37,0.15c-0.1,0.11-0.18,0.24-0.13,0.38l0.54,1.36c0.05,0.13,0.08,0.26,0.2,0.34
		c0.11,0.09,0.26,0.13,0.39,0.08l1.65-0.66c0.19,0.17,0.44,0.25,0.71,0.23c0.26-0.03,0.5-0.16,0.65-0.35l1.31,0.3
		c0.14,0.03,0.26-0.04,0.37-0.15c0.1-0.1,0.13-0.22,0.13-0.37l-0.05-1.26c-0.01-0.15-0.08-0.26-0.19-0.34
		c-0.12-0.09-0.26-0.14-0.39-0.08l-1.29,0.57C12.8,16.5,12.55,16.41,12.28,16.43L12.28,16.43z"/>
	<path fill-rule="evenodd" clip-rule="evenodd" fill="#E6E6E6" d="M12.41,16.43l-1.4,1.34l-4.23-3.34c0.01-0.1,0.04-0.39,0.09-0.49
		C8.46,14.74,10.35,15.52,12.41,16.43L12.41,16.43z"/>
	<polygon fill-rule="evenodd" clip-rule="evenodd" fill="#E6E6E6" points="12.41,16.43 13.96,17.28 13.99,15.25 13.74,14.65 	"/>
	<polygon fill-rule="evenodd" clip-rule="evenodd" fill="#E6E6E6" points="10.04,23.57 8.64,23 7.86,24.66 10.71,24.49 	"/>
	<path fill-rule="evenodd" clip-rule="evenodd" fill="#4E4F52" d="M10.93,26.82c-0.03-1.07-0.06-1.78-0.09-2.61
		c-1.03,0.22-2.09,0.22-3.29,0.14c0,0.94,0.01,1.76,0.03,2.59C8.7,26.98,9.82,26.93,10.93,26.82L10.93,26.82z"/>
	<path fill-rule="evenodd" clip-rule="evenodd" fill="#EFAA64" d="M7.23,10.42C6.86,9.23,6.69,8.24,6.64,7.36
		C6.42,3.64,8.03,0.88,12.04,1c3.57,0.11,4.95,2.88,5.06,6.25c0.11,3.47-1.08,7.46-4.5,7.61C10.66,14.94,8.55,13.65,7.23,10.42
		L7.23,10.42z"/>
	<path fill-rule="evenodd" clip-rule="evenodd" fill="#EFC090" d="M7.86,4.71c0.57-1.64,1.91-2.68,4.18-2.61
		c2.97,0.09,4.11,2.39,4.2,5.19c0.06,1.84-0.32,3.87-1.36,5.12c-0.47,0.29-1.02,0.46-1.65,0.48c-1.75,0.08-3.66-1.09-4.85-4.02
		C8.05,7.8,7.89,6.9,7.84,6.1C7.81,5.62,7.82,5.16,7.86,4.71L7.86,4.71z"/>
	<path fill-rule="evenodd" clip-rule="evenodd" fill="#A88B5C" d="M7.6,8.67c-0.03,0.11-0.19,0.67-0.2,0.68
		c-0.11,0.94-0.18,1.94-0.28,2.71C6.16,10.79,5.47,9.3,5.25,7.79C5,6.07,4.92,4.39,5.42,3.06c0.79-2.07,3.35-2.91,5.39-3.05
		c1.82-0.13,5.32,0.5,5.82,2.38c0.3,0.85,0.23,1.75,0.14,2.51c-0.07-0.3-0.33-0.96-0.83-0.83c-0.68,0.23-1.39,0.37-2.15,0.38
		c-0.73,0.01-1.5-0.11-2.32-0.38C9.71,3.58,8.4,5.47,8.74,7.65c0.07,0.36,0.07,0.63-0.01,0.69C8.47,8.54,7.67,8.67,7.6,8.67
		L7.6,8.67z"/>
	<path fill-rule="evenodd" clip-rule="evenodd" fill="#EFAA64" d="M8.11,9.01C8.05,8.82,7.97,8.55,7.89,8.32s-0.17-0.4-0.32-0.57
		C7.41,7.59,7.18,7.45,6.9,7.44C6.63,7.44,6.34,7.57,6.16,7.87c-0.17,0.3-0.22,0.76-0.07,1.22c0.14,0.45,0.47,0.9,0.75,1.16
		c0.27,0.26,0.49,0.33,0.7,0.32c0.2-0.01,0.41-0.09,0.54-0.23c0.13-0.14,0.19-0.33,0.22-0.5c0.02-0.17-0.01-0.3-0.04-0.42
		C8.22,9.3,8.17,9.19,8.11,9.01L8.11,9.01z"/>
</g>
<g>
</g>
<g>
</g>
<g>
</g>
<g>
</g>
<g>
</g>
<g>
</g>
<g>
</g>
<g>
</g>
<g>
</g>
<g>
</g>
<g>
</g>
<g>
</g>
<g>
</g>
<g>
</g>
<g>
</g>
</svg>
