<?xml version="1.0" encoding="utf-8"?>
<!-- Generator: Adobe Illustrator 18.1.1, SVG Export Plug-In . SVG Version: 6.00 Build 0)  -->
<svg version="1.1" id="Слой_1" xmlns="http://www.w3.org/2000/svg" xmlns:xlink="http://www.w3.org/1999/xlink" x="0px" y="0px"
	 viewBox="0 0 20 26.97" enable-background="new 0 0 20 26.97" xml:space="preserve">
<g>
	<path fill-rule="evenodd" clip-rule="evenodd" fill="#CCCCCC" d="M20,23.29c-0.7-5.74-4.88-9.5-10.35-9.54
		c-0.9,0.12-1.76,0.31-2.57,0.58C7,14.27,6.92,14.21,6.84,14.14c-0.01,0.09-0.03,0.19-0.05,0.28C2.87,15.83,0.22,19.07,0,24.54
		C4.68,28.86,19.02,26.78,20,23.29L20,23.29z"/>
	<path fill-rule="evenodd" clip-rule="evenodd" fill="#A42B2E" d="M12.93,26.59c0.43-0.07,0.85-0.15,1.27-0.24L15,24.73l-1.96-6.99
		l-1.2,0.12l-0.48,6.59L12.93,26.59z"/>
	<path fill-rule="evenodd" clip-rule="evenodd" fill="#363639" d="M20,23.29c-0.51-4.18-2.86-7.31-6.2-8.72l-0.05,0.07
		c0.38,2.66,0.81,7.61-0.31,10.13c-1.32-2.37-3.82-7.44-6.65-10.35C2.87,15.83,0.22,19.07,0,24.54C4.68,28.86,19.02,26.78,20,23.29
		L20,23.29z"/>
	<path fill-rule="evenodd" clip-rule="evenodd" fill="#555559" d="M2.56,17.25C1.06,18.99,0.13,21.4,0,24.54
		c1.59,1.47,4.31,2.2,7.23,2.38C6.88,23.36,5.25,19.73,2.56,17.25L2.56,17.25z"/>
	<path fill-rule="evenodd" clip-rule="evenodd" fill="#555559" d="M20,23.29c-0.26-2.17-1.03-4.07-2.17-5.58
		c0.02,2.87-0.29,5.52-0.93,7.94C18.57,25.02,19.74,24.2,20,23.29L20,23.29z"/>
	<path fill-rule="evenodd" clip-rule="evenodd" fill="#DA9457" d="M7.42,9.2c1.68-2.23,5.66-1.44,5.95,1.08
		c0.11,1.54,0.03,2.56,0.38,4.37c0.03,0.17,0.05,0.33,0.07,0.49c-0.19,0.68-0.89,1.61-1.36,2.02c-1.68-0.46-3.7-1.46-5.61-3.01
		C7.14,12.38,7.16,11.06,7.42,9.2z"/>
	<path fill-rule="evenodd" clip-rule="evenodd" fill="#A42B2E" d="M12.42,16.43l-0.96,0.41c-0.16,0.26-0.24,0.66-0.26,1.03
		c0.32,0.28,1.04,0.79,1.49,0.96c0.38-0.44,0.65-0.89,0.87-1.29l-0.55-0.99L12.42,16.43z"/>
	<path fill-rule="evenodd" clip-rule="evenodd" fill="#555559" d="M13.43,24.77c-2.33-4.62-4.54-8.07-6.65-10.35
		C6.28,15.3,6,16.2,5.74,17.36C7.56,19.74,10.92,22.81,13.43,24.77L13.43,24.77z"/>
	<path fill-rule="evenodd" clip-rule="evenodd" fill="#555559" d="M13.74,14.64c0.66,3.68,0.56,7.05-0.31,10.13
		c1.4-2.24,2.33-5.17,2.37-8.14C15.54,16.2,14.56,15.07,13.74,14.64L13.74,14.64z"/>
	<path fill-rule="evenodd" clip-rule="evenodd" fill="#E6E6E6" d="M12.42,16.43l-0.67,1.35l-4.97-3.35
		c0.01-0.09,0.04-0.39,0.09-0.49C8.46,14.74,10.35,15.52,12.42,16.43L12.42,16.43z"/>
	<polygon fill-rule="evenodd" clip-rule="evenodd" fill="#E6E6E6" points="12.42,16.43 13.43,17.49 13.99,15.25 13.74,14.64 	"/>
	<path fill-rule="evenodd" clip-rule="evenodd" fill="#EFAA64" d="M7.23,10.42C6.86,9.24,6.69,8.24,6.64,7.36
		c-0.22-3.71,1.39-6.48,5.4-6.36c3.57,0.11,4.95,2.88,5.06,6.25c0.11,3.46-1.08,7.46-4.5,7.61C10.66,14.94,8.56,13.66,7.23,10.42
		L7.23,10.42z"/>
	<path fill-rule="evenodd" clip-rule="evenodd" fill="#EFC090" d="M7.96,4.78c0.56-1.61,1.87-2.62,4.08-2.55
		c2.9,0.09,4.01,2.34,4.1,5.07c0.06,1.8-0.32,3.77-1.32,4.99c-0.46,0.28-0.99,0.44-1.61,0.47c-1.71,0.08-3.58-1.06-4.74-3.92
		c-0.33-1.04-0.48-1.92-0.53-2.7C7.92,5.67,7.92,5.21,7.96,4.78L7.96,4.78z"/>
	<path fill-rule="evenodd" clip-rule="evenodd" fill="#45515E" d="M7.6,8.67c-0.03,0.11-0.2,0.67-0.2,0.68
		c-0.11,0.94-0.19,1.94-0.29,2.71C6.16,10.79,5.48,9.3,5.25,7.79C5,6.07,4.92,4.39,5.43,3.06c0.79-2.07,3.35-2.91,5.38-3.05
		c1.82-0.12,5.32,0.51,5.83,2.39c0.3,0.85,0.22,1.74,0.13,2.5c-0.32-1.55-1.87-1.87-2.79-0.5C12.03,2.45,6.99,3.57,8.69,7.1
		c0.05,0.12,0.3,1.26,0.18,1.31C8.58,8.53,7.67,8.66,7.6,8.67L7.6,8.67z"/>
	<path fill-rule="evenodd" clip-rule="evenodd" fill="#EFAA64" d="M8.11,9.01C8.05,8.82,7.97,8.55,7.89,8.32
		C7.81,8.1,7.73,7.92,7.57,7.75C7.41,7.59,7.18,7.45,6.9,7.44c-0.26,0-0.57,0.13-0.75,0.43c-0.17,0.3-0.22,0.76-0.07,1.22
		c0.14,0.46,0.48,0.9,0.75,1.16c0.28,0.26,0.49,0.33,0.7,0.32c0.2,0,0.41-0.09,0.54-0.22c0.13-0.14,0.2-0.34,0.22-0.5
		c0.02-0.17,0-0.3-0.04-0.42C8.22,9.3,8.17,9.2,8.11,9.01L8.11,9.01z"/>
</g>
<g>
</g>
<g>
</g>
<g>
</g>
<g>
</g>
<g>
</g>
<g>
</g>
<g>
</g>
<g>
</g>
<g>
</g>
<g>
</g>
<g>
</g>
<g>
</g>
<g>
</g>
<g>
</g>
<g>
</g>
</svg>
