<?xml version="1.0" encoding="utf-8"?>
<!-- Generator: Adobe Illustrator 18.1.1, SVG Export Plug-In . SVG Version: 6.00 Build 0)  -->
<svg version="1.1" id="Слой_1" xmlns="http://www.w3.org/2000/svg" xmlns:xlink="http://www.w3.org/1999/xlink" x="0px" y="0px"
	 viewBox="0 0 32.21 38.08" enable-background="new 0 0 32.21 38.08" xml:space="preserve">
<path fill-rule="evenodd" clip-rule="evenodd" fill="#F54444" d="M17.77,0.8l13.96,19c0.5,0.68,0.63,1.51,0.26,2.27
	c-0.37,0.76-1.09,1.21-1.94,1.21h-6.98v12.38c0,1.32-1.09,2.41-2.41,2.41h-9.14c-1.32,0-2.41-1.08-2.41-2.41V23.29H2.15
	c-0.85,0-1.57-0.45-1.94-1.21c-0.37-0.76-0.24-1.59,0.26-2.27l13.96-19c0.39-0.54,1-0.8,1.67-0.8C16.77,0,17.38,0.26,17.77,0.8
	L17.77,0.8z"/>
<g>
</g>
<g>
</g>
<g>
</g>
<g>
</g>
<g>
</g>
<g>
</g>
<g>
</g>
<g>
</g>
<g>
</g>
<g>
</g>
<g>
</g>
<g>
</g>
<g>
</g>
<g>
</g>
<g>
</g>
</svg>
