<?xml version="1.0" encoding="utf-8"?>
<!-- Generator: Adobe Illustrator 18.1.1, SVG Export Plug-In . SVG Version: 6.00 Build 0)  -->
<svg version="1.1" id="Слой_1" xmlns="http://www.w3.org/2000/svg" xmlns:xlink="http://www.w3.org/1999/xlink" x="0px" y="0px"
	 viewBox="0 0 20.01 30.08" enable-background="new 0 0 20.01 30.08" xml:space="preserve">
<g>
	<g>
		<path fill-rule="evenodd" clip-rule="evenodd" fill="#BACAD9" d="M20,26.4c-0.7-5.74-4.88-9.51-10.35-9.54
			c-0.9,0.12-1.76,0.31-2.57,0.57C7,17.38,6.92,17.32,6.84,17.25c-0.01,0.09-0.03,0.19-0.05,0.28C2.87,18.94,0.22,22.18,0,27.65
			C4.68,31.97,19.02,29.89,20,26.4L20,26.4z"/>
		<path fill-rule="evenodd" clip-rule="evenodd" fill="#E0E9F6" d="M20,26.4c-0.51-4.18-2.86-7.31-6.2-8.72l-0.05,0.07
			c0.38,2.66,0.66,7.73-0.46,10.25c-1.32-2.37-3.67-7.57-6.5-10.47C2.87,18.94,0.22,22.18,0,27.65C4.68,31.97,19.02,29.89,20,26.4
			L20,26.4z"/>
		<path fill-rule="evenodd" clip-rule="evenodd" fill="#91ACC4" d="M2.51,20.43c-1.49,1.77-2.39,4.18-2.48,7.32
			c1.61,1.46,4.33,2.15,7.26,2.3C6.9,26.5,5.23,22.89,2.51,20.43L2.51,20.43z"/>
		<path fill-rule="evenodd" clip-rule="evenodd" fill="#91ACC4" d="M20.01,26.29c-0.29-2.18-1.08-4.06-2.24-5.56
			c0.05,2.88-0.23,5.59-0.84,8.02C18.6,28.1,19.82,27.34,20.01,26.29L20.01,26.29z"/>
		<polygon fill-rule="evenodd" clip-rule="evenodd" fill="#F8AA25" points="10.54,25.09 8.91,26.46 6.76,25.33 8.84,25.52 		"/>
	</g>
	<path fill-rule="evenodd" clip-rule="evenodd" fill="#96542E" d="M11.96,7.46c-0.07-0.2-0.23-0.4-0.4-0.59
		c1.12-0.64-0.84-4.73,0.5-4.31c4.02,1.26,4.09,4.93,3.67,7.8c-0.04,0.06-0.07,0.13-0.15,0.22l-0.38,1.7
		c0.02,1.92,0.44,3.42,1.12,4.34C13.81,19.9,5.22,19.3,3.18,16.21c0.47-0.29,0.84-0.65,1.11-1.06c0.64-1,0.45-1.72,0.38-2.82
		C4.5,9.38,3.89,4.82,8.56,3.35C9.91,2.93,7.51,6.87,8.63,7.5C8.46,7.7,8.29,7.89,8.23,8.09c-0.07,0.2-0.03,0.42,0,0.64
		C7.98,8.92,7.73,9.1,7.51,9.34c-0.22,0.24-0.42,0.55-0.49,0.89c-0.07,0.34,0.25,1.67,0.27,2.13c0.03,0.48,0.32,1.06,0.27,1.9
		c-0.01,0.15-0.03,0.29-0.05,0.42l5.5,0.42c-0.22-0.39-0.36-0.88-0.4-1.47c-0.05-0.84,0.25-1.42,0.27-1.9
		c0.03-0.47,0.34-1.79,0.28-2.13c-0.07-0.34-0.27-0.65-0.49-0.89c-0.22-0.24-0.48-0.42-0.73-0.61C11.99,7.88,12.03,7.66,11.96,7.46
		L11.96,7.46z"/>
	<path fill-rule="evenodd" clip-rule="evenodd" fill="#DA9457" d="M13.75,17.65c-0.32-1.74-0.26-2.76-0.36-4.26
		c-0.28-2.52-4.27-3.32-5.95-1.08c-0.28,1.96-0.28,3.32-0.63,5.23c0.81,0.79,1.74,1.83,2.76,3.07c1.8,1.45,3.55,1.84,4.21,0.59
		C13.84,20.09,13.83,18.91,13.75,17.65L13.75,17.65z"/>
	<path fill-rule="evenodd" clip-rule="evenodd" fill="#EFAA64" d="M7.44,13.29c-0.24-1.12-0.32-2.06-0.3-2.88
		c0.09-3.45,1.78-5.88,5.47-5.45c3.29,0.38,4.34,3.05,4.18,6.18c-0.17,3.21-1.59,6.81-4.74,6.68C10.25,17.73,8.41,16.38,7.44,13.29
		L7.44,13.29z"/>
	<path fill-rule="evenodd" clip-rule="evenodd" fill="#EFC090" d="M8.28,8.35c0.65-1.47,1.97-2.32,4.05-2.08
		c2.73,0.32,3.6,2.53,3.46,5.12c-0.09,1.7-0.6,3.54-1.64,4.61c-0.45,0.22-0.98,0.34-1.56,0.32c-1.62-0.07-3.29-1.29-4.16-4.09
		c-0.22-1.01-0.3-1.86-0.28-2.6C8.16,9.18,8.2,8.75,8.28,8.35L8.28,8.35z"/>
	<path fill-rule="evenodd" clip-rule="evenodd" fill="#A7623B" d="M7.63,11.78c-0.05,0.15-0.02,0.05-0.06,0.2
		c-0.2,0.13,0.01,0.28-0.15,0.48c-0.11,0.94-0.17,1.84-0.28,2.61c-1.66-1.75-2.29-4.88-2.04-7.21C5.35,5.63,6.83,3.72,8.84,3
		c3.49-1.24,7.12,0.02,8.24,3.76c0.19,0.65,0.37,1.76,0.38,2.62c-2.61,0.84-5.4,0.84-8.66-0.13c0.01,0.1-0.12,2.24-0.13,2.25
		C8.5,11.85,7.69,11.77,7.63,11.78L7.63,11.78z"/>
	<path fill-rule="evenodd" clip-rule="evenodd" fill="#81A1C3" d="M16.95,5.13C14.16,5.96,8.28,6.24,5.16,5.55
		c-0.32-0.38-1-1.22-1.08-1.82C3.97,2.93,7.2,1.6,11.04,0.7c3.83-0.9,7.33-0.93,7.44-0.13c0.01,0.03,0.01,0.07,0,0.11
		C18.4,2.45,17.7,3.9,16.95,5.13L16.95,5.13z"/>
	<path fill-rule="evenodd" clip-rule="evenodd" fill="#668AB0" d="M4.24,4.28C4.17,4.09,4.11,3.9,4.09,3.72
		C3.97,2.93,7.2,1.6,11.04,0.7c3.83-0.9,7.33-0.93,7.44-0.13c0.01,0.03,0.01,0.07,0,0.11c-0.01,0.24-0.03,0.48-0.05,0.71
		c-0.44-0.65-3.96-0.54-7.39,0.26C7.6,2.46,4.9,3.48,4.24,4.28L4.24,4.28z"/>
	<polygon fill-rule="evenodd" clip-rule="evenodd" fill="#FFCC00" points="16.98,2.05 15.07,3.76 12.43,2.48 14.94,2.63 	"/>
	<path fill-rule="evenodd" clip-rule="evenodd" fill="#FFCC00" d="M17.08,6.76l-0.13-1.64C13.04,5.69,8.84,5.96,5.16,5.55L5.12,7.19
		C9.23,7.56,13.98,7.52,17.08,6.76L17.08,6.76z"/>
	<path fill-rule="evenodd" clip-rule="evenodd" fill="#4E4F52" d="M17.08,6.76c-3.44,0.4-6.52,0.63-9.35,0.6
		c1.21,1.09,5.23,2.21,7.67,2.06C16.77,9.35,18.25,8.42,17.08,6.76L17.08,6.76z"/>
	<path fill-rule="evenodd" clip-rule="evenodd" fill="#4E4F52" d="M6.79,9.24c-0.69,0.13-1.06,1.24-0.81,2.48
		c0.24,1.24,1,2.13,1.69,1.99c0.69-0.14,1.05-1.25,0.81-2.48C8.24,9.99,7.48,9.1,6.79,9.24L6.79,9.24z"/>
	<path fill="#666666" d="M13.19,15.87c0.2-0.03,0.33-0.22,0.3-0.42c-0.03-0.2-0.21-0.33-0.41-0.3c-1.06,0.15-2.89,0.01-3.94-0.14
		c-0.5-0.55-0.93-1.14-1.31-1.74C7.4,12.59,7.06,11.89,6.8,11.2c-0.07-0.19-0.28-0.28-0.47-0.2c-0.19,0.07-0.28,0.28-0.21,0.47
		c0.28,0.73,0.65,1.47,1.1,2.19c0.42,0.67,0.91,1.32,1.48,1.94l0.09,0.09l0.12,0.02C10.06,15.88,12.03,16.04,13.19,15.87
		L13.19,15.87z"/>
	<g>
		<polygon fill-rule="evenodd" clip-rule="evenodd" fill="#45515E" points="13.53,29.03 14.77,27.06 12.96,21.06 11.85,21.13 
			11.38,27.53 		"/>
		<path fill-rule="evenodd" clip-rule="evenodd" fill="#45515E" d="M11.69,20.42l-0.98,1.09c0.44,0.38,1.56,1.17,2.17,1.41l1.2-1.76
			l-0.9-0.89L11.69,20.42z"/>
		<path fill-rule="evenodd" clip-rule="evenodd" fill="#91ACC4" d="M11.94,20.39l-2.01,2.13l-3.61-4.81
			c0.01-0.1,0.56-0.93,0.61-1.03C8.81,17.96,10.1,19.09,11.94,20.39L11.94,20.39z"/>
		<polygon fill-rule="evenodd" clip-rule="evenodd" fill="#91ACC4" points="12.87,20.3 14.4,21.97 14.69,18.11 13.86,17.71 
			13.74,17.75 		"/>
	</g>
</g>
<g>
</g>
<g>
</g>
<g>
</g>
<g>
</g>
<g>
</g>
<g>
</g>
<g>
</g>
<g>
</g>
<g>
</g>
<g>
</g>
<g>
</g>
<g>
</g>
<g>
</g>
<g>
</g>
<g>
</g>
</svg>
